<svg width="72" height="72" viewBox="0 0 72 72" fill="none" xmlns="http://www.w3.org/2000/svg">
<path fill-rule="evenodd" clip-rule="evenodd" d="M35.9558 0.0639648C55.7858 0.0639648 71.8472 16.1254 71.8472 35.9553C71.8472 55.7853 55.7858 71.8467 35.9558 71.8467C16.1258 71.8467 0.0644531 55.7853 0.0644531 35.9553C0.0644531 16.1254 16.1258 0.0639648 35.9558 0.0639648ZM28.2392 42.1466L52.9145 17.4713C54.081 16.3048 55.8756 16.3048 56.9523 17.4713L60.1825 20.6118C61.2593 21.7782 61.2593 23.5728 60.1825 24.6496L30.3029 54.5291C29.1365 55.6059 27.3419 55.6059 26.2652 54.5291L11.8189 40.0829C10.7421 39.0061 10.7421 37.2115 11.8189 36.0451L15.0491 32.9046C16.1258 31.7381 17.9204 31.7381 19.0869 32.9046L28.2392 42.1466Z" fill="#1553b7"/>
</svg>
