<svg width="187" height="72" viewBox="0 0 187 72" fill="none" xmlns="http://www.w3.org/2000/svg">
<path d="M84.954 40.1415C84.915 40.2065 84.8717 40.2563 84.824 40.291C84.7807 40.3213 84.7265 40.3365 84.6615 40.3365C84.5878 40.3365 84.5012 40.2997 84.4015 40.226C84.3018 40.1523 84.1762 40.0722 84.0245 39.9855C83.8772 39.8945 83.6973 39.8122 83.485 39.7385C83.277 39.6648 83.0235 39.628 82.7245 39.628C82.4428 39.628 82.1937 39.667 81.977 39.745C81.7647 39.8187 81.5848 39.9205 81.4375 40.0505C81.2945 40.1805 81.1862 40.3343 81.1125 40.512C81.0388 40.6853 81.002 40.8738 81.002 41.0775C81.002 41.3375 81.0648 41.5542 81.1905 41.7275C81.3205 41.8965 81.4895 42.0417 81.6975 42.163C81.9098 42.2843 82.1482 42.3905 82.4125 42.4815C82.6812 42.5682 82.9542 42.6592 83.2315 42.7545C83.5132 42.8498 83.7862 42.9582 84.0505 43.0795C84.3192 43.1965 84.5575 43.346 84.7655 43.528C84.9778 43.71 85.1468 43.9332 85.2725 44.1975C85.4025 44.4618 85.4675 44.7868 85.4675 45.1725C85.4675 45.5798 85.3982 45.9633 85.2595 46.323C85.1208 46.6783 84.9172 46.9882 84.6485 47.2525C84.3842 47.5168 84.057 47.7248 83.667 47.8765C83.2813 48.0282 82.8415 48.104 82.3475 48.104C81.7408 48.104 81.1905 47.9957 80.6965 47.779C80.2025 47.558 79.78 47.2612 79.429 46.8885L79.793 46.2905C79.8277 46.2428 79.8688 46.2038 79.9165 46.1735C79.9685 46.1388 80.0248 46.1215 80.0855 46.1215C80.1418 46.1215 80.2047 46.1453 80.274 46.193C80.3477 46.2363 80.43 46.2927 80.521 46.362C80.612 46.4313 80.716 46.5072 80.833 46.5895C80.95 46.6718 81.0822 46.7477 81.2295 46.817C81.3812 46.8863 81.5523 46.9448 81.743 46.9925C81.9337 47.0358 82.1482 47.0575 82.3865 47.0575C82.6855 47.0575 82.952 47.0163 83.186 46.934C83.42 46.8517 83.6172 46.7368 83.7775 46.5895C83.9422 46.4378 84.0678 46.258 84.1545 46.05C84.2412 45.842 84.2845 45.6102 84.2845 45.3545C84.2845 45.0728 84.2195 44.8432 84.0895 44.6655C83.9638 44.4835 83.797 44.3318 83.589 44.2105C83.381 44.0892 83.1427 43.9873 82.874 43.905C82.6053 43.8183 82.3323 43.7317 82.055 43.645C81.7777 43.554 81.5047 43.45 81.236 43.333C80.9673 43.216 80.729 43.0643 80.521 42.878C80.313 42.6917 80.144 42.4598 80.014 42.1825C79.8883 41.9008 79.8255 41.5542 79.8255 41.1425C79.8255 40.8132 79.8883 40.4947 80.014 40.187C80.144 39.8793 80.3303 39.6063 80.573 39.368C80.82 39.1297 81.1212 38.939 81.4765 38.796C81.8362 38.653 82.2478 38.5815 82.7115 38.5815C83.2315 38.5815 83.7038 38.6638 84.1285 38.8285C84.5575 38.9932 84.9345 39.2315 85.2595 39.5435L84.954 40.1415ZM95.8541 43.346C95.8541 44.0437 95.7436 44.685 95.5226 45.27C95.3016 45.8507 94.9896 46.3512 94.5866 46.7715C94.1836 47.1918 93.6983 47.519 93.1306 47.753C92.5673 47.9827 91.9433 48.0975 91.2586 48.0975C90.5739 48.0975 89.9499 47.9827 89.3866 47.753C88.8233 47.519 88.3401 47.1918 87.9371 46.7715C87.5341 46.3512 87.2221 45.8507 87.0011 45.27C86.7801 44.685 86.6696 44.0437 86.6696 43.346C86.6696 42.6483 86.7801 42.0092 87.0011 41.4285C87.2221 40.8435 87.5341 40.3408 87.9371 39.9205C88.3401 39.4958 88.8233 39.1665 89.3866 38.9325C89.9499 38.6985 90.5739 38.5815 91.2586 38.5815C91.9433 38.5815 92.5673 38.6985 93.1306 38.9325C93.6983 39.1665 94.1836 39.4958 94.5866 39.9205C94.9896 40.3408 95.3016 40.8435 95.5226 41.4285C95.7436 42.0092 95.8541 42.6483 95.8541 43.346ZM94.5606 43.346C94.5606 42.774 94.4826 42.2605 94.3266 41.8055C94.1706 41.3505 93.9496 40.967 93.6636 40.655C93.3776 40.3387 93.0309 40.096 92.6236 39.927C92.2163 39.758 91.7613 39.6735 91.2586 39.6735C90.7603 39.6735 90.3074 39.758 89.9001 39.927C89.4928 40.096 89.1439 40.3387 88.8536 40.655C88.5676 40.967 88.3466 41.3505 88.1906 41.8055C88.0346 42.2605 87.9566 42.774 87.9566 43.346C87.9566 43.918 88.0346 44.4315 88.1906 44.8865C88.3466 45.3372 88.5676 45.7207 88.8536 46.037C89.1439 46.349 89.4928 46.5895 89.9001 46.7585C90.3074 46.9232 90.7603 47.0055 91.2586 47.0055C91.7613 47.0055 92.2163 46.9232 92.6236 46.7585C93.0309 46.5895 93.3776 46.349 93.6636 46.037C93.9496 45.7207 94.1706 45.3372 94.3266 44.8865C94.4826 44.4315 94.5606 43.918 94.5606 43.346ZM102.943 46.9405V48H97.6583V38.6855H98.9128V46.9405H102.943ZM107.588 46.999C107.973 46.999 108.318 46.934 108.621 46.804C108.925 46.674 109.18 46.492 109.388 46.258C109.601 46.024 109.761 45.7445 109.869 45.4195C109.982 45.0945 110.038 44.737 110.038 44.347V38.6855H111.293V44.347C111.293 44.8843 111.206 45.3827 111.033 45.842C110.864 46.3013 110.619 46.7 110.298 47.038C109.982 47.3717 109.594 47.6338 109.135 47.8245C108.675 48.0152 108.16 48.1105 107.588 48.1105C107.016 48.1105 106.5 48.0152 106.041 47.8245C105.581 47.6338 105.191 47.3717 104.871 47.038C104.55 46.7 104.303 46.3013 104.13 45.842C103.961 45.3827 103.876 44.8843 103.876 44.347V38.6855H105.131V44.3405C105.131 44.7305 105.185 45.088 105.293 45.413C105.406 45.738 105.566 46.0175 105.774 46.2515C105.987 46.4855 106.244 46.6697 106.548 46.804C106.855 46.934 107.202 46.999 107.588 46.999ZM119.851 39.745H116.835V48H115.581V39.745H112.558V38.6855H119.851V39.745ZM122.494 48H121.233V38.6855H122.494V48ZM133.483 43.346C133.483 44.0437 133.373 44.685 133.152 45.27C132.931 45.8507 132.619 46.3512 132.216 46.7715C131.813 47.1918 131.327 47.519 130.76 47.753C130.196 47.9827 129.572 48.0975 128.888 48.0975C128.203 48.0975 127.579 47.9827 127.016 47.753C126.452 47.519 125.969 47.1918 125.566 46.7715C125.163 46.3512 124.851 45.8507 124.63 45.27C124.409 44.685 124.299 44.0437 124.299 43.346C124.299 42.6483 124.409 42.0092 124.63 41.4285C124.851 40.8435 125.163 40.3408 125.566 39.9205C125.969 39.4958 126.452 39.1665 127.016 38.9325C127.579 38.6985 128.203 38.5815 128.888 38.5815C129.572 38.5815 130.196 38.6985 130.76 38.9325C131.327 39.1665 131.813 39.4958 132.216 39.9205C132.619 40.3408 132.931 40.8435 133.152 41.4285C133.373 42.0092 133.483 42.6483 133.483 43.346ZM132.19 43.346C132.19 42.774 132.112 42.2605 131.956 41.8055C131.8 41.3505 131.579 40.967 131.293 40.655C131.007 40.3387 130.66 40.096 130.252 39.927C129.845 39.758 129.39 39.6735 128.888 39.6735C128.389 39.6735 127.936 39.758 127.529 39.927C127.122 40.096 126.773 40.3387 126.483 40.655C126.197 40.967 125.976 41.3505 125.82 41.8055C125.664 42.2605 125.586 42.774 125.586 43.346C125.586 43.918 125.664 44.4315 125.82 44.8865C125.976 45.3372 126.197 45.7207 126.483 46.037C126.773 46.349 127.122 46.5895 127.529 46.7585C127.936 46.9232 128.389 47.0055 128.888 47.0055C129.39 47.0055 129.845 46.9232 130.252 46.7585C130.66 46.5895 131.007 46.349 131.293 46.037C131.579 45.7207 131.8 45.3372 131.956 44.8865C132.112 44.4315 132.19 43.918 132.19 43.346ZM142.834 38.6855V48H142.203C142.103 48 142.019 47.9827 141.95 47.948C141.885 47.9133 141.82 47.8548 141.755 47.7725L136.366 40.7525C136.375 40.8608 136.381 40.967 136.386 41.071C136.39 41.175 136.392 41.2725 136.392 41.3635V48H135.287V38.6855H135.937C135.993 38.6855 136.041 38.6898 136.08 38.6985C136.119 38.7028 136.154 38.7137 136.184 38.731C136.214 38.744 136.245 38.7657 136.275 38.796C136.305 38.822 136.338 38.8567 136.373 38.9L141.761 45.9135C141.752 45.8008 141.744 45.6925 141.735 45.5885C141.731 45.4802 141.729 45.3783 141.729 45.283V38.6855H142.834ZM149.979 40.1415C149.94 40.2065 149.897 40.2563 149.849 40.291C149.806 40.3213 149.752 40.3365 149.687 40.3365C149.613 40.3365 149.527 40.2997 149.427 40.226C149.327 40.1523 149.202 40.0722 149.05 39.9855C148.903 39.8945 148.723 39.8122 148.51 39.7385C148.302 39.6648 148.049 39.628 147.75 39.628C147.468 39.628 147.219 39.667 147.002 39.745C146.79 39.8187 146.61 39.9205 146.463 40.0505C146.32 40.1805 146.212 40.3343 146.138 40.512C146.064 40.6853 146.027 40.8738 146.027 41.0775C146.027 41.3375 146.09 41.5542 146.216 41.7275C146.346 41.8965 146.515 42.0417 146.723 42.163C146.935 42.2843 147.174 42.3905 147.438 42.4815C147.707 42.5682 147.98 42.6592 148.257 42.7545C148.539 42.8498 148.812 42.9582 149.076 43.0795C149.345 43.1965 149.583 43.346 149.791 43.528C150.003 43.71 150.172 43.9332 150.298 44.1975C150.428 44.4618 150.493 44.7868 150.493 45.1725C150.493 45.5798 150.424 45.9633 150.285 46.323C150.146 46.6783 149.943 46.9882 149.674 47.2525C149.41 47.5168 149.082 47.7248 148.692 47.8765C148.307 48.0282 147.867 48.104 147.373 48.104C146.766 48.104 146.216 47.9957 145.722 47.779C145.228 47.558 144.805 47.2612 144.454 46.8885L144.818 46.2905C144.853 46.2428 144.894 46.2038 144.942 46.1735C144.994 46.1388 145.05 46.1215 145.111 46.1215C145.167 46.1215 145.23 46.1453 145.299 46.193C145.373 46.2363 145.455 46.2927 145.546 46.362C145.637 46.4313 145.741 46.5072 145.858 46.5895C145.975 46.6718 146.108 46.7477 146.255 46.817C146.407 46.8863 146.578 46.9448 146.768 46.9925C146.959 47.0358 147.174 47.0575 147.412 47.0575C147.711 47.0575 147.977 47.0163 148.211 46.934C148.445 46.8517 148.643 46.7368 148.803 46.5895C148.968 46.4378 149.093 46.258 149.18 46.05C149.267 45.842 149.31 45.6102 149.31 45.3545C149.31 45.0728 149.245 44.8432 149.115 44.6655C148.989 44.4835 148.822 44.3318 148.614 44.2105C148.406 44.0892 148.168 43.9873 147.899 43.905C147.631 43.8183 147.358 43.7317 147.08 43.645C146.803 43.554 146.53 43.45 146.261 43.333C145.993 43.216 145.754 43.0643 145.546 42.878C145.338 42.6917 145.169 42.4598 145.039 42.1825C144.914 41.9008 144.851 41.5542 144.851 41.1425C144.851 40.8132 144.914 40.4947 145.039 40.187C145.169 39.8793 145.356 39.6063 145.598 39.368C145.845 39.1297 146.147 38.939 146.502 38.796C146.862 38.653 147.273 38.5815 147.737 38.5815C148.257 38.5815 148.729 38.6638 149.154 38.8285C149.583 38.9932 149.96 39.2315 150.285 39.5435L149.979 40.1415Z" fill="#858181"/>
<path d="M84.954 40.1415C84.915 40.2065 84.8717 40.2563 84.824 40.291C84.7807 40.3213 84.7265 40.3365 84.6615 40.3365C84.5878 40.3365 84.5012 40.2997 84.4015 40.226C84.3018 40.1523 84.1762 40.0722 84.0245 39.9855C83.8772 39.8945 83.6973 39.8122 83.485 39.7385C83.277 39.6648 83.0235 39.628 82.7245 39.628C82.4428 39.628 82.1937 39.667 81.977 39.745C81.7647 39.8187 81.5848 39.9205 81.4375 40.0505C81.2945 40.1805 81.1862 40.3343 81.1125 40.512C81.0388 40.6853 81.002 40.8738 81.002 41.0775C81.002 41.3375 81.0648 41.5542 81.1905 41.7275C81.3205 41.8965 81.4895 42.0417 81.6975 42.163C81.9098 42.2843 82.1482 42.3905 82.4125 42.4815C82.6812 42.5682 82.9542 42.6592 83.2315 42.7545C83.5132 42.8498 83.7862 42.9582 84.0505 43.0795C84.3192 43.1965 84.5575 43.346 84.7655 43.528C84.9778 43.71 85.1468 43.9332 85.2725 44.1975C85.4025 44.4618 85.4675 44.7868 85.4675 45.1725C85.4675 45.5798 85.3982 45.9633 85.2595 46.323C85.1208 46.6783 84.9172 46.9882 84.6485 47.2525C84.3842 47.5168 84.057 47.7248 83.667 47.8765C83.2813 48.0282 82.8415 48.104 82.3475 48.104C81.7408 48.104 81.1905 47.9957 80.6965 47.779C80.2025 47.558 79.78 47.2612 79.429 46.8885L79.793 46.2905C79.8277 46.2428 79.8688 46.2038 79.9165 46.1735C79.9685 46.1388 80.0248 46.1215 80.0855 46.1215C80.1418 46.1215 80.2047 46.1453 80.274 46.193C80.3477 46.2363 80.43 46.2927 80.521 46.362C80.612 46.4313 80.716 46.5072 80.833 46.5895C80.95 46.6718 81.0822 46.7477 81.2295 46.817C81.3812 46.8863 81.5523 46.9448 81.743 46.9925C81.9337 47.0358 82.1482 47.0575 82.3865 47.0575C82.6855 47.0575 82.952 47.0163 83.186 46.934C83.42 46.8517 83.6172 46.7368 83.7775 46.5895C83.9422 46.4378 84.0678 46.258 84.1545 46.05C84.2412 45.842 84.2845 45.6102 84.2845 45.3545C84.2845 45.0728 84.2195 44.8432 84.0895 44.6655C83.9638 44.4835 83.797 44.3318 83.589 44.2105C83.381 44.0892 83.1427 43.9873 82.874 43.905C82.6053 43.8183 82.3323 43.7317 82.055 43.645C81.7777 43.554 81.5047 43.45 81.236 43.333C80.9673 43.216 80.729 43.0643 80.521 42.878C80.313 42.6917 80.144 42.4598 80.014 42.1825C79.8883 41.9008 79.8255 41.5542 79.8255 41.1425C79.8255 40.8132 79.8883 40.4947 80.014 40.187C80.144 39.8793 80.3303 39.6063 80.573 39.368C80.82 39.1297 81.1212 38.939 81.4765 38.796C81.8362 38.653 82.2478 38.5815 82.7115 38.5815C83.2315 38.5815 83.7038 38.6638 84.1285 38.8285C84.5575 38.9932 84.9345 39.2315 85.2595 39.5435L84.954 40.1415ZM95.8541 43.346C95.8541 44.0437 95.7436 44.685 95.5226 45.27C95.3016 45.8507 94.9896 46.3512 94.5866 46.7715C94.1836 47.1918 93.6983 47.519 93.1306 47.753C92.5673 47.9827 91.9433 48.0975 91.2586 48.0975C90.5739 48.0975 89.9499 47.9827 89.3866 47.753C88.8233 47.519 88.3401 47.1918 87.9371 46.7715C87.5341 46.3512 87.2221 45.8507 87.0011 45.27C86.7801 44.685 86.6696 44.0437 86.6696 43.346C86.6696 42.6483 86.7801 42.0092 87.0011 41.4285C87.2221 40.8435 87.5341 40.3408 87.9371 39.9205C88.3401 39.4958 88.8233 39.1665 89.3866 38.9325C89.9499 38.6985 90.5739 38.5815 91.2586 38.5815C91.9433 38.5815 92.5673 38.6985 93.1306 38.9325C93.6983 39.1665 94.1836 39.4958 94.5866 39.9205C94.9896 40.3408 95.3016 40.8435 95.5226 41.4285C95.7436 42.0092 95.8541 42.6483 95.8541 43.346ZM94.5606 43.346C94.5606 42.774 94.4826 42.2605 94.3266 41.8055C94.1706 41.3505 93.9496 40.967 93.6636 40.655C93.3776 40.3387 93.0309 40.096 92.6236 39.927C92.2163 39.758 91.7613 39.6735 91.2586 39.6735C90.7603 39.6735 90.3074 39.758 89.9001 39.927C89.4928 40.096 89.1439 40.3387 88.8536 40.655C88.5676 40.967 88.3466 41.3505 88.1906 41.8055C88.0346 42.2605 87.9566 42.774 87.9566 43.346C87.9566 43.918 88.0346 44.4315 88.1906 44.8865C88.3466 45.3372 88.5676 45.7207 88.8536 46.037C89.1439 46.349 89.4928 46.5895 89.9001 46.7585C90.3074 46.9232 90.7603 47.0055 91.2586 47.0055C91.7613 47.0055 92.2163 46.9232 92.6236 46.7585C93.0309 46.5895 93.3776 46.349 93.6636 46.037C93.9496 45.7207 94.1706 45.3372 94.3266 44.8865C94.4826 44.4315 94.5606 43.918 94.5606 43.346ZM102.943 46.9405V48H97.6583V38.6855H98.9128V46.9405H102.943ZM107.588 46.999C107.973 46.999 108.318 46.934 108.621 46.804C108.925 46.674 109.18 46.492 109.388 46.258C109.601 46.024 109.761 45.7445 109.869 45.4195C109.982 45.0945 110.038 44.737 110.038 44.347V38.6855H111.293V44.347C111.293 44.8843 111.206 45.3827 111.033 45.842C110.864 46.3013 110.619 46.7 110.298 47.038C109.982 47.3717 109.594 47.6338 109.135 47.8245C108.675 48.0152 108.16 48.1105 107.588 48.1105C107.016 48.1105 106.5 48.0152 106.041 47.8245C105.581 47.6338 105.191 47.3717 104.871 47.038C104.55 46.7 104.303 46.3013 104.13 45.842C103.961 45.3827 103.876 44.8843 103.876 44.347V38.6855H105.131V44.3405C105.131 44.7305 105.185 45.088 105.293 45.413C105.406 45.738 105.566 46.0175 105.774 46.2515C105.987 46.4855 106.244 46.6697 106.548 46.804C106.855 46.934 107.202 46.999 107.588 46.999ZM119.851 39.745H116.835V48H115.581V39.745H112.558V38.6855H119.851V39.745ZM122.494 48H121.233V38.6855H122.494V48ZM133.483 43.346C133.483 44.0437 133.373 44.685 133.152 45.27C132.931 45.8507 132.619 46.3512 132.216 46.7715C131.813 47.1918 131.327 47.519 130.76 47.753C130.196 47.9827 129.572 48.0975 128.888 48.0975C128.203 48.0975 127.579 47.9827 127.016 47.753C126.452 47.519 125.969 47.1918 125.566 46.7715C125.163 46.3512 124.851 45.8507 124.63 45.27C124.409 44.685 124.299 44.0437 124.299 43.346C124.299 42.6483 124.409 42.0092 124.63 41.4285C124.851 40.8435 125.163 40.3408 125.566 39.9205C125.969 39.4958 126.452 39.1665 127.016 38.9325C127.579 38.6985 128.203 38.5815 128.888 38.5815C129.572 38.5815 130.196 38.6985 130.76 38.9325C131.327 39.1665 131.813 39.4958 132.216 39.9205C132.619 40.3408 132.931 40.8435 133.152 41.4285C133.373 42.0092 133.483 42.6483 133.483 43.346ZM132.19 43.346C132.19 42.774 132.112 42.2605 131.956 41.8055C131.8 41.3505 131.579 40.967 131.293 40.655C131.007 40.3387 130.66 40.096 130.252 39.927C129.845 39.758 129.39 39.6735 128.888 39.6735C128.389 39.6735 127.936 39.758 127.529 39.927C127.122 40.096 126.773 40.3387 126.483 40.655C126.197 40.967 125.976 41.3505 125.82 41.8055C125.664 42.2605 125.586 42.774 125.586 43.346C125.586 43.918 125.664 44.4315 125.82 44.8865C125.976 45.3372 126.197 45.7207 126.483 46.037C126.773 46.349 127.122 46.5895 127.529 46.7585C127.936 46.9232 128.389 47.0055 128.888 47.0055C129.39 47.0055 129.845 46.9232 130.252 46.7585C130.66 46.5895 131.007 46.349 131.293 46.037C131.579 45.7207 131.8 45.3372 131.956 44.8865C132.112 44.4315 132.19 43.918 132.19 43.346ZM142.834 38.6855V48H142.203C142.103 48 142.019 47.9827 141.95 47.948C141.885 47.9133 141.82 47.8548 141.755 47.7725L136.366 40.7525C136.375 40.8608 136.381 40.967 136.386 41.071C136.39 41.175 136.392 41.2725 136.392 41.3635V48H135.287V38.6855H135.937C135.993 38.6855 136.041 38.6898 136.08 38.6985C136.119 38.7028 136.154 38.7137 136.184 38.731C136.214 38.744 136.245 38.7657 136.275 38.796C136.305 38.822 136.338 38.8567 136.373 38.9L141.761 45.9135C141.752 45.8008 141.744 45.6925 141.735 45.5885C141.731 45.4802 141.729 45.3783 141.729 45.283V38.6855H142.834ZM149.979 40.1415C149.94 40.2065 149.897 40.2563 149.849 40.291C149.806 40.3213 149.752 40.3365 149.687 40.3365C149.613 40.3365 149.527 40.2997 149.427 40.226C149.327 40.1523 149.202 40.0722 149.05 39.9855C148.903 39.8945 148.723 39.8122 148.51 39.7385C148.302 39.6648 148.049 39.628 147.75 39.628C147.468 39.628 147.219 39.667 147.002 39.745C146.79 39.8187 146.61 39.9205 146.463 40.0505C146.32 40.1805 146.212 40.3343 146.138 40.512C146.064 40.6853 146.027 40.8738 146.027 41.0775C146.027 41.3375 146.09 41.5542 146.216 41.7275C146.346 41.8965 146.515 42.0417 146.723 42.163C146.935 42.2843 147.174 42.3905 147.438 42.4815C147.707 42.5682 147.98 42.6592 148.257 42.7545C148.539 42.8498 148.812 42.9582 149.076 43.0795C149.345 43.1965 149.583 43.346 149.791 43.528C150.003 43.71 150.172 43.9332 150.298 44.1975C150.428 44.4618 150.493 44.7868 150.493 45.1725C150.493 45.5798 150.424 45.9633 150.285 46.323C150.146 46.6783 149.943 46.9882 149.674 47.2525C149.41 47.5168 149.082 47.7248 148.692 47.8765C148.307 48.0282 147.867 48.104 147.373 48.104C146.766 48.104 146.216 47.9957 145.722 47.779C145.228 47.558 144.805 47.2612 144.454 46.8885L144.818 46.2905C144.853 46.2428 144.894 46.2038 144.942 46.1735C144.994 46.1388 145.05 46.1215 145.111 46.1215C145.167 46.1215 145.23 46.1453 145.299 46.193C145.373 46.2363 145.455 46.2927 145.546 46.362C145.637 46.4313 145.741 46.5072 145.858 46.5895C145.975 46.6718 146.108 46.7477 146.255 46.817C146.407 46.8863 146.578 46.9448 146.768 46.9925C146.959 47.0358 147.174 47.0575 147.412 47.0575C147.711 47.0575 147.977 47.0163 148.211 46.934C148.445 46.8517 148.643 46.7368 148.803 46.5895C148.968 46.4378 149.093 46.258 149.18 46.05C149.267 45.842 149.31 45.6102 149.31 45.3545C149.31 45.0728 149.245 44.8432 149.115 44.6655C148.989 44.4835 148.822 44.3318 148.614 44.2105C148.406 44.0892 148.168 43.9873 147.899 43.905C147.631 43.8183 147.358 43.7317 147.08 43.645C146.803 43.554 146.53 43.45 146.261 43.333C145.993 43.216 145.754 43.0643 145.546 42.878C145.338 42.6917 145.169 42.4598 145.039 42.1825C144.914 41.9008 144.851 41.5542 144.851 41.1425C144.851 40.8132 144.914 40.4947 145.039 40.187C145.169 39.8793 145.356 39.6063 145.598 39.368C145.845 39.1297 146.147 38.939 146.502 38.796C146.862 38.653 147.273 38.5815 147.737 38.5815C148.257 38.5815 148.729 38.6638 149.154 38.8285C149.583 38.9932 149.96 39.2315 150.285 39.5435L149.979 40.1415Z" fill="url(#paint0_linear)" fill-opacity="0.4"/>
<path d="M120.907 23.52C120.907 24.27 121.009 24.942 121.213 25.536C121.417 26.13 121.708 26.634 122.086 27.048C122.464 27.456 122.92 27.771 123.454 27.993C123.988 28.209 124.585 28.317 125.245 28.317C125.911 28.317 126.511 28.209 127.045 27.993C127.579 27.771 128.032 27.456 128.404 27.048C128.782 26.634 129.07 26.13 129.268 25.536C129.472 24.942 129.574 24.27 129.574 23.52C129.574 22.776 129.472 22.107 129.268 21.513C129.07 20.919 128.782 20.415 128.404 20.001C128.032 19.587 127.579 19.269 127.045 19.047C126.511 18.825 125.911 18.714 125.245 18.714C124.585 18.714 123.988 18.825 123.454 19.047C122.92 19.269 122.464 19.587 122.086 20.001C121.708 20.415 121.417 20.919 121.213 21.513C121.009 22.107 120.907 22.776 120.907 23.52ZM132.364 32.592H130.636C130.378 32.592 130.15 32.556 129.952 32.484C129.754 32.418 129.571 32.295 129.403 32.115L127.333 29.838C126.685 30.036 125.989 30.135 125.245 30.135C124.279 30.135 123.397 29.97 122.599 29.64C121.807 29.31 121.126 28.854 120.556 28.272C119.986 27.684 119.545 26.985 119.233 26.175C118.921 25.365 118.765 24.48 118.765 23.52C118.765 22.56 118.921 21.675 119.233 20.865C119.545 20.055 119.986 19.356 120.556 18.768C121.126 18.18 121.807 17.721 122.599 17.391C123.397 17.061 124.279 16.896 125.245 16.896C126.217 16.896 127.099 17.061 127.891 17.391C128.689 17.721 129.37 18.18 129.934 18.768C130.504 19.356 130.945 20.055 131.257 20.865C131.569 21.675 131.725 22.56 131.725 23.52C131.725 24.114 131.665 24.681 131.545 25.221C131.425 25.755 131.251 26.256 131.023 26.724C130.795 27.186 130.516 27.612 130.186 28.002C129.856 28.386 129.481 28.722 129.061 29.01L132.364 32.592ZM139.135 28.299C139.633 28.299 140.077 28.215 140.467 28.047C140.863 27.879 141.196 27.645 141.466 27.345C141.742 27.045 141.952 26.685 142.096 26.265C142.24 25.839 142.312 25.368 142.312 24.852V17.04H144.409V24.852C144.409 25.614 144.286 26.319 144.04 26.967C143.8 27.615 143.452 28.176 142.996 28.65C142.54 29.118 141.985 29.487 141.331 29.757C140.683 30.021 139.951 30.153 139.135 30.153C138.319 30.153 137.584 30.021 136.93 29.757C136.282 29.487 135.73 29.118 135.274 28.65C134.818 28.176 134.467 27.615 134.221 26.967C133.981 26.319 133.861 25.614 133.861 24.852V17.04H135.967V24.843C135.967 25.359 136.039 25.83 136.183 26.256C136.327 26.676 136.534 27.039 136.804 27.345C137.074 27.645 137.404 27.879 137.794 28.047C138.19 28.215 138.637 28.299 139.135 28.299ZM155.421 28.299L155.412 30H147.33V17.04H155.412V18.741H149.445V22.647H154.215V24.294H149.445V28.299H155.421ZM165.792 28.299L165.783 30H157.701V17.04H165.783V18.741H159.816V22.647H164.586V24.294H159.816V28.299H165.792ZM178.8 17.04V30H177.729C177.567 30 177.429 29.973 177.315 29.919C177.201 29.859 177.093 29.763 176.991 29.631L169.872 20.487C169.89 20.661 169.902 20.835 169.908 21.009C169.92 21.177 169.926 21.333 169.926 21.477V30H168.072V17.04H169.17C169.26 17.04 169.335 17.046 169.395 17.058C169.461 17.064 169.521 17.079 169.575 17.103C169.629 17.127 169.68 17.163 169.728 17.211C169.776 17.259 169.827 17.319 169.881 17.391L177.009 26.544C176.991 26.358 176.976 26.175 176.964 25.995C176.958 25.815 176.955 25.647 176.955 25.491V17.04H178.8Z" fill="#FF5858"/>
<path d="M120.907 23.52C120.907 24.27 121.009 24.942 121.213 25.536C121.417 26.13 121.708 26.634 122.086 27.048C122.464 27.456 122.92 27.771 123.454 27.993C123.988 28.209 124.585 28.317 125.245 28.317C125.911 28.317 126.511 28.209 127.045 27.993C127.579 27.771 128.032 27.456 128.404 27.048C128.782 26.634 129.07 26.13 129.268 25.536C129.472 24.942 129.574 24.27 129.574 23.52C129.574 22.776 129.472 22.107 129.268 21.513C129.07 20.919 128.782 20.415 128.404 20.001C128.032 19.587 127.579 19.269 127.045 19.047C126.511 18.825 125.911 18.714 125.245 18.714C124.585 18.714 123.988 18.825 123.454 19.047C122.92 19.269 122.464 19.587 122.086 20.001C121.708 20.415 121.417 20.919 121.213 21.513C121.009 22.107 120.907 22.776 120.907 23.52ZM132.364 32.592H130.636C130.378 32.592 130.15 32.556 129.952 32.484C129.754 32.418 129.571 32.295 129.403 32.115L127.333 29.838C126.685 30.036 125.989 30.135 125.245 30.135C124.279 30.135 123.397 29.97 122.599 29.64C121.807 29.31 121.126 28.854 120.556 28.272C119.986 27.684 119.545 26.985 119.233 26.175C118.921 25.365 118.765 24.48 118.765 23.52C118.765 22.56 118.921 21.675 119.233 20.865C119.545 20.055 119.986 19.356 120.556 18.768C121.126 18.18 121.807 17.721 122.599 17.391C123.397 17.061 124.279 16.896 125.245 16.896C126.217 16.896 127.099 17.061 127.891 17.391C128.689 17.721 129.37 18.18 129.934 18.768C130.504 19.356 130.945 20.055 131.257 20.865C131.569 21.675 131.725 22.56 131.725 23.52C131.725 24.114 131.665 24.681 131.545 25.221C131.425 25.755 131.251 26.256 131.023 26.724C130.795 27.186 130.516 27.612 130.186 28.002C129.856 28.386 129.481 28.722 129.061 29.01L132.364 32.592ZM139.135 28.299C139.633 28.299 140.077 28.215 140.467 28.047C140.863 27.879 141.196 27.645 141.466 27.345C141.742 27.045 141.952 26.685 142.096 26.265C142.24 25.839 142.312 25.368 142.312 24.852V17.04H144.409V24.852C144.409 25.614 144.286 26.319 144.04 26.967C143.8 27.615 143.452 28.176 142.996 28.65C142.54 29.118 141.985 29.487 141.331 29.757C140.683 30.021 139.951 30.153 139.135 30.153C138.319 30.153 137.584 30.021 136.93 29.757C136.282 29.487 135.73 29.118 135.274 28.65C134.818 28.176 134.467 27.615 134.221 26.967C133.981 26.319 133.861 25.614 133.861 24.852V17.04H135.967V24.843C135.967 25.359 136.039 25.83 136.183 26.256C136.327 26.676 136.534 27.039 136.804 27.345C137.074 27.645 137.404 27.879 137.794 28.047C138.19 28.215 138.637 28.299 139.135 28.299ZM155.421 28.299L155.412 30H147.33V17.04H155.412V18.741H149.445V22.647H154.215V24.294H149.445V28.299H155.421ZM165.792 28.299L165.783 30H157.701V17.04H165.783V18.741H159.816V22.647H164.586V24.294H159.816V28.299H165.792ZM178.8 17.04V30H177.729C177.567 30 177.429 29.973 177.315 29.919C177.201 29.859 177.093 29.763 176.991 29.631L169.872 20.487C169.89 20.661 169.902 20.835 169.908 21.009C169.92 21.177 169.926 21.333 169.926 21.477V30H168.072V17.04H169.17C169.26 17.04 169.335 17.046 169.395 17.058C169.461 17.064 169.521 17.079 169.575 17.103C169.629 17.127 169.68 17.163 169.728 17.211C169.776 17.259 169.827 17.319 169.881 17.391L177.009 26.544C176.991 26.358 176.976 26.175 176.964 25.995C176.958 25.815 176.955 25.647 176.955 25.491V17.04H178.8Z" fill="url(#paint1_linear)" fill-opacity="0.4"/>
<path d="M84.301 24.2092C84.781 24.2092 85.201 24.1522 85.561 24.0382C85.921 23.9182 86.221 23.7532 86.461 23.5432C86.701 23.3332 86.881 23.0842 87.001 22.7962C87.121 22.5022 87.181 22.1782 87.181 21.8242C87.181 21.1162 86.947 20.5762 86.479 20.2042C86.011 19.8322 85.303 19.6462 84.355 19.6462H82.645V24.2092H84.301ZM90.403 30.9592H88.522C88.15 30.9592 87.88 30.8152 87.712 30.5272L84.688 26.1622C84.586 26.0122 84.475 25.9042 84.355 25.8382C84.235 25.7722 84.055 25.7392 83.815 25.7392H82.645V30.9592H80.539V17.9992H84.355C85.207 17.9992 85.939 18.0862 86.551 18.2602C87.169 18.4342 87.676 18.6832 88.072 19.0072C88.468 19.3252 88.759 19.7092 88.945 20.1592C89.137 20.6092 89.233 21.1102 89.233 21.6622C89.233 22.1122 89.164 22.5322 89.026 22.9222C88.894 23.3122 88.699 23.6662 88.441 23.9842C88.189 24.3022 87.877 24.5782 87.505 24.8122C87.133 25.0462 86.71 25.2292 86.236 25.3612C86.494 25.5172 86.716 25.7362 86.902 26.0182L90.403 30.9592ZM100.056 29.2582L100.047 30.9592H91.9648V17.9992H100.047V19.7002H94.0798V23.6062H98.8498V25.2532H94.0798V29.2582H100.056ZM113.712 24.4792C113.712 25.4392 113.556 26.3182 113.244 27.1162C112.932 27.9082 112.491 28.5892 111.921 29.1592C111.357 29.7292 110.676 30.1732 109.878 30.4912C109.086 30.8032 108.204 30.9592 107.232 30.9592H102.336V17.9992H107.232C108.204 17.9992 109.086 18.1582 109.878 18.4762C110.676 18.7882 111.357 19.2292 111.921 19.7992C112.491 20.3692 112.932 21.0532 113.244 21.8512C113.556 22.6432 113.712 23.5192 113.712 24.4792ZM111.561 24.4792C111.561 23.7352 111.459 23.0662 111.255 22.4722C111.057 21.8782 110.769 21.3772 110.391 20.9692C110.019 20.5612 109.566 20.2492 109.032 20.0332C108.498 19.8112 107.898 19.7002 107.232 19.7002H104.451V29.2582H107.232C107.898 29.2582 108.498 29.1502 109.032 28.9342C109.566 28.7182 110.019 28.4062 110.391 27.9982C110.769 27.5842 111.057 27.0832 111.255 26.4952C111.459 25.9012 111.561 25.2292 111.561 24.4792Z" fill="#FF5858"/>
<path d="M84.301 24.2092C84.781 24.2092 85.201 24.1522 85.561 24.0382C85.921 23.9182 86.221 23.7532 86.461 23.5432C86.701 23.3332 86.881 23.0842 87.001 22.7962C87.121 22.5022 87.181 22.1782 87.181 21.8242C87.181 21.1162 86.947 20.5762 86.479 20.2042C86.011 19.8322 85.303 19.6462 84.355 19.6462H82.645V24.2092H84.301ZM90.403 30.9592H88.522C88.15 30.9592 87.88 30.8152 87.712 30.5272L84.688 26.1622C84.586 26.0122 84.475 25.9042 84.355 25.8382C84.235 25.7722 84.055 25.7392 83.815 25.7392H82.645V30.9592H80.539V17.9992H84.355C85.207 17.9992 85.939 18.0862 86.551 18.2602C87.169 18.4342 87.676 18.6832 88.072 19.0072C88.468 19.3252 88.759 19.7092 88.945 20.1592C89.137 20.6092 89.233 21.1102 89.233 21.6622C89.233 22.1122 89.164 22.5322 89.026 22.9222C88.894 23.3122 88.699 23.6662 88.441 23.9842C88.189 24.3022 87.877 24.5782 87.505 24.8122C87.133 25.0462 86.71 25.2292 86.236 25.3612C86.494 25.5172 86.716 25.7362 86.902 26.0182L90.403 30.9592ZM100.056 29.2582L100.047 30.9592H91.9648V17.9992H100.047V19.7002H94.0798V23.6062H98.8498V25.2532H94.0798V29.2582H100.056ZM113.712 24.4792C113.712 25.4392 113.556 26.3182 113.244 27.1162C112.932 27.9082 112.491 28.5892 111.921 29.1592C111.357 29.7292 110.676 30.1732 109.878 30.4912C109.086 30.8032 108.204 30.9592 107.232 30.9592H102.336V17.9992H107.232C108.204 17.9992 109.086 18.1582 109.878 18.4762C110.676 18.7882 111.357 19.2292 111.921 19.7992C112.491 20.3692 112.932 21.0532 113.244 21.8512C113.556 22.6432 113.712 23.5192 113.712 24.4792ZM111.561 24.4792C111.561 23.7352 111.459 23.0662 111.255 22.4722C111.057 21.8782 110.769 21.3772 110.391 20.9692C110.019 20.5612 109.566 20.2492 109.032 20.0332C108.498 19.8112 107.898 19.7002 107.232 19.7002H104.451V29.2582H107.232C107.898 29.2582 108.498 29.1502 109.032 28.9342C109.566 28.7182 110.019 28.4062 110.391 27.9982C110.769 27.5842 111.057 27.0832 111.255 26.4952C111.459 25.9012 111.561 25.2292 111.561 24.4792Z" fill="url(#paint2_linear)" fill-opacity="0.4"/>
<g filter="url(#filter0_d)">
<circle cx="36" cy="32" r="30" fill="#FF5858"/>
<circle cx="36" cy="32" r="30" fill="url(#paint3_linear)" fill-opacity="0.3"/>
</g>
<path d="M47.5579 21L35.0005 42.75H60.1152L47.5579 21Z" fill="#FFF7F7"/>
<path d="M36.5579 21L24.0005 42.75H49.1152L36.5579 21Z" fill="#CACACA"/>
<path d="M24.5579 21L12.0005 42.75H37.1152L24.5579 21Z" fill="#F4F1D0"/>
<defs>
<filter id="filter0_d" x="0" y="0" width="72" height="72" filterUnits="userSpaceOnUse" color-interpolation-filters="sRGB">
<feFlood flood-opacity="0" result="BackgroundImageFix"/>
<feColorMatrix in="SourceAlpha" type="matrix" values="0 0 0 0 0 0 0 0 0 0 0 0 0 0 0 0 0 0 127 0" result="hardAlpha"/>
<feOffset dy="4"/>
<feGaussianBlur stdDeviation="3"/>
<feColorMatrix type="matrix" values="0 0 0 0 0 0 0 0 0 0 0 0 0 0 0 0 0 0 0.25 0"/>
<feBlend mode="normal" in2="BackgroundImageFix" result="effect1_dropShadow"/>
<feBlend mode="normal" in="SourceGraphic" in2="effect1_dropShadow" result="shape"/>
</filter>
<linearGradient id="paint0_linear" x1="116" y1="35" x2="116" y2="60" gradientUnits="userSpaceOnUse">
<stop stop-color="white"/>
<stop offset="1" stop-color="white" stop-opacity="0"/>
</linearGradient>
<linearGradient id="paint1_linear" x1="149.5" y1="12" x2="149.5" y2="38" gradientUnits="userSpaceOnUse">
<stop stop-color="#FAFAF5"/>
<stop offset="1" stop-color="white" stop-opacity="0"/>
</linearGradient>
<linearGradient id="paint2_linear" x1="97.5" y1="12.9592" x2="97.5" y2="33.1021" gradientUnits="userSpaceOnUse">
<stop stop-color="#FAFAF5"/>
<stop offset="1" stop-color="white" stop-opacity="0"/>
</linearGradient>
<linearGradient id="paint3_linear" x1="36" y1="2" x2="36" y2="62" gradientUnits="userSpaceOnUse">
<stop stop-color="white"/>
<stop offset="1" stop-color="white" stop-opacity="0"/>
</linearGradient>
</defs>
</svg>
