<svg width="179" height="60" viewBox="0 0 179 60" fill="none" xmlns="http://www.w3.org/2000/svg">
<circle cx="30" cy="30" r="30" fill="#FF5858"/>
<circle cx="30" cy="30" r="30" fill="url(#paint0_linear)" fill-opacity="0.3"/>
<path d="M41.5574 19L29 40.75H54.1147L41.5574 19Z" fill="#FFF7F7"/>
<path d="M30.5574 19L18 40.75H43.1147L30.5574 19Z" fill="#CACACA"/>
<path d="M18.5574 19L6 40.75H31.1147L18.5574 19Z" fill="#F4F1D0"/>
<path d="M84.301 23.2092C84.781 23.2092 85.201 23.1522 85.561 23.0382C85.921 22.9182 86.221 22.7532 86.461 22.5432C86.701 22.3332 86.881 22.0842 87.001 21.7962C87.121 21.5022 87.181 21.1782 87.181 20.8242C87.181 20.1162 86.947 19.5762 86.479 19.2042C86.011 18.8322 85.303 18.6462 84.355 18.6462H82.645V23.2092H84.301ZM90.403 29.9592H88.522C88.15 29.9592 87.88 29.8152 87.712 29.5272L84.688 25.1622C84.586 25.0122 84.475 24.9042 84.355 24.8382C84.235 24.7722 84.055 24.7392 83.815 24.7392H82.645V29.9592H80.539V16.9992H84.355C85.207 16.9992 85.939 17.0862 86.551 17.2602C87.169 17.4342 87.676 17.6832 88.072 18.0072C88.468 18.3252 88.759 18.7092 88.945 19.1592C89.137 19.6092 89.233 20.1102 89.233 20.6622C89.233 21.1122 89.164 21.5322 89.026 21.9222C88.894 22.3122 88.699 22.6662 88.441 22.9842C88.189 23.3022 87.877 23.5782 87.505 23.8122C87.133 24.0462 86.71 24.2292 86.236 24.3612C86.494 24.5172 86.716 24.7362 86.902 25.0182L90.403 29.9592ZM100.056 28.2582L100.047 29.9592H91.9648V16.9992H100.047V18.7002H94.0798V22.6062H98.8498V24.2532H94.0798V28.2582H100.056ZM113.712 23.4792C113.712 24.4392 113.556 25.3182 113.244 26.1162C112.932 26.9082 112.491 27.5892 111.921 28.1592C111.357 28.7292 110.676 29.1732 109.878 29.4912C109.086 29.8032 108.204 29.9592 107.232 29.9592H102.336V16.9992H107.232C108.204 16.9992 109.086 17.1582 109.878 17.4762C110.676 17.7882 111.357 18.2292 111.921 18.7992C112.491 19.3692 112.932 20.0532 113.244 20.8512C113.556 21.6432 113.712 22.5192 113.712 23.4792ZM111.561 23.4792C111.561 22.7352 111.459 22.0662 111.255 21.4722C111.057 20.8782 110.769 20.3772 110.391 19.9692C110.019 19.5612 109.566 19.2492 109.032 19.0332C108.498 18.8112 107.898 18.7002 107.232 18.7002H104.451V28.2582H107.232C107.898 28.2582 108.498 28.1502 109.032 27.9342C109.566 27.7182 110.019 27.4062 110.391 26.9982C110.769 26.5842 111.057 26.0832 111.255 25.4952C111.459 24.9012 111.561 24.2292 111.561 23.4792Z" fill="#FF5858"/>
<path d="M84.301 23.2092C84.781 23.2092 85.201 23.1522 85.561 23.0382C85.921 22.9182 86.221 22.7532 86.461 22.5432C86.701 22.3332 86.881 22.0842 87.001 21.7962C87.121 21.5022 87.181 21.1782 87.181 20.8242C87.181 20.1162 86.947 19.5762 86.479 19.2042C86.011 18.8322 85.303 18.6462 84.355 18.6462H82.645V23.2092H84.301ZM90.403 29.9592H88.522C88.15 29.9592 87.88 29.8152 87.712 29.5272L84.688 25.1622C84.586 25.0122 84.475 24.9042 84.355 24.8382C84.235 24.7722 84.055 24.7392 83.815 24.7392H82.645V29.9592H80.539V16.9992H84.355C85.207 16.9992 85.939 17.0862 86.551 17.2602C87.169 17.4342 87.676 17.6832 88.072 18.0072C88.468 18.3252 88.759 18.7092 88.945 19.1592C89.137 19.6092 89.233 20.1102 89.233 20.6622C89.233 21.1122 89.164 21.5322 89.026 21.9222C88.894 22.3122 88.699 22.6662 88.441 22.9842C88.189 23.3022 87.877 23.5782 87.505 23.8122C87.133 24.0462 86.71 24.2292 86.236 24.3612C86.494 24.5172 86.716 24.7362 86.902 25.0182L90.403 29.9592ZM100.056 28.2582L100.047 29.9592H91.9648V16.9992H100.047V18.7002H94.0798V22.6062H98.8498V24.2532H94.0798V28.2582H100.056ZM113.712 23.4792C113.712 24.4392 113.556 25.3182 113.244 26.1162C112.932 26.9082 112.491 27.5892 111.921 28.1592C111.357 28.7292 110.676 29.1732 109.878 29.4912C109.086 29.8032 108.204 29.9592 107.232 29.9592H102.336V16.9992H107.232C108.204 16.9992 109.086 17.1582 109.878 17.4762C110.676 17.7882 111.357 18.2292 111.921 18.7992C112.491 19.3692 112.932 20.0532 113.244 20.8512C113.556 21.6432 113.712 22.5192 113.712 23.4792ZM111.561 23.4792C111.561 22.7352 111.459 22.0662 111.255 21.4722C111.057 20.8782 110.769 20.3772 110.391 19.9692C110.019 19.5612 109.566 19.2492 109.032 19.0332C108.498 18.8112 107.898 18.7002 107.232 18.7002H104.451V28.2582H107.232C107.898 28.2582 108.498 28.1502 109.032 27.9342C109.566 27.7182 110.019 27.4062 110.391 26.9982C110.769 26.5842 111.057 26.0832 111.255 25.4952C111.459 24.9012 111.561 24.2292 111.561 23.4792Z" fill="url(#paint1_linear)" fill-opacity="0.4"/>
<path d="M120.907 22.52C120.907 23.27 121.009 23.942 121.213 24.536C121.417 25.13 121.708 25.634 122.086 26.048C122.464 26.456 122.92 26.771 123.454 26.993C123.988 27.209 124.585 27.317 125.245 27.317C125.911 27.317 126.511 27.209 127.045 26.993C127.579 26.771 128.032 26.456 128.404 26.048C128.782 25.634 129.07 25.13 129.268 24.536C129.472 23.942 129.574 23.27 129.574 22.52C129.574 21.776 129.472 21.107 129.268 20.513C129.07 19.919 128.782 19.415 128.404 19.001C128.032 18.587 127.579 18.269 127.045 18.047C126.511 17.825 125.911 17.714 125.245 17.714C124.585 17.714 123.988 17.825 123.454 18.047C122.92 18.269 122.464 18.587 122.086 19.001C121.708 19.415 121.417 19.919 121.213 20.513C121.009 21.107 120.907 21.776 120.907 22.52ZM132.364 31.592H130.636C130.378 31.592 130.15 31.556 129.952 31.484C129.754 31.418 129.571 31.295 129.403 31.115L127.333 28.838C126.685 29.036 125.989 29.135 125.245 29.135C124.279 29.135 123.397 28.97 122.599 28.64C121.807 28.31 121.126 27.854 120.556 27.272C119.986 26.684 119.545 25.985 119.233 25.175C118.921 24.365 118.765 23.48 118.765 22.52C118.765 21.56 118.921 20.675 119.233 19.865C119.545 19.055 119.986 18.356 120.556 17.768C121.126 17.18 121.807 16.721 122.599 16.391C123.397 16.061 124.279 15.896 125.245 15.896C126.217 15.896 127.099 16.061 127.891 16.391C128.689 16.721 129.37 17.18 129.934 17.768C130.504 18.356 130.945 19.055 131.257 19.865C131.569 20.675 131.725 21.56 131.725 22.52C131.725 23.114 131.665 23.681 131.545 24.221C131.425 24.755 131.251 25.256 131.023 25.724C130.795 26.186 130.516 26.612 130.186 27.002C129.856 27.386 129.481 27.722 129.061 28.01L132.364 31.592ZM139.135 27.299C139.633 27.299 140.077 27.215 140.467 27.047C140.863 26.879 141.196 26.645 141.466 26.345C141.742 26.045 141.952 25.685 142.096 25.265C142.24 24.839 142.312 24.368 142.312 23.852V16.04H144.409V23.852C144.409 24.614 144.286 25.319 144.04 25.967C143.8 26.615 143.452 27.176 142.996 27.65C142.54 28.118 141.985 28.487 141.331 28.757C140.683 29.021 139.951 29.153 139.135 29.153C138.319 29.153 137.584 29.021 136.93 28.757C136.282 28.487 135.73 28.118 135.274 27.65C134.818 27.176 134.467 26.615 134.221 25.967C133.981 25.319 133.861 24.614 133.861 23.852V16.04H135.967V23.843C135.967 24.359 136.039 24.83 136.183 25.256C136.327 25.676 136.534 26.039 136.804 26.345C137.074 26.645 137.404 26.879 137.794 27.047C138.19 27.215 138.637 27.299 139.135 27.299ZM155.421 27.299L155.412 29H147.33V16.04H155.412V17.741H149.445V21.647H154.215V23.294H149.445V27.299H155.421ZM165.792 27.299L165.783 29H157.701V16.04H165.783V17.741H159.816V21.647H164.586V23.294H159.816V27.299H165.792ZM178.8 16.04V29H177.729C177.567 29 177.429 28.973 177.315 28.919C177.201 28.859 177.093 28.763 176.991 28.631L169.872 19.487C169.89 19.661 169.902 19.835 169.908 20.009C169.92 20.177 169.926 20.333 169.926 20.477V29H168.072V16.04H169.17C169.26 16.04 169.335 16.046 169.395 16.058C169.461 16.064 169.521 16.079 169.575 16.103C169.629 16.127 169.68 16.163 169.728 16.211C169.776 16.259 169.827 16.319 169.881 16.391L177.009 25.544C176.991 25.358 176.976 25.175 176.964 24.995C176.958 24.815 176.955 24.647 176.955 24.491V16.04H178.8Z" fill="#FF5858"/>
<path d="M120.907 22.52C120.907 23.27 121.009 23.942 121.213 24.536C121.417 25.13 121.708 25.634 122.086 26.048C122.464 26.456 122.92 26.771 123.454 26.993C123.988 27.209 124.585 27.317 125.245 27.317C125.911 27.317 126.511 27.209 127.045 26.993C127.579 26.771 128.032 26.456 128.404 26.048C128.782 25.634 129.07 25.13 129.268 24.536C129.472 23.942 129.574 23.27 129.574 22.52C129.574 21.776 129.472 21.107 129.268 20.513C129.07 19.919 128.782 19.415 128.404 19.001C128.032 18.587 127.579 18.269 127.045 18.047C126.511 17.825 125.911 17.714 125.245 17.714C124.585 17.714 123.988 17.825 123.454 18.047C122.92 18.269 122.464 18.587 122.086 19.001C121.708 19.415 121.417 19.919 121.213 20.513C121.009 21.107 120.907 21.776 120.907 22.52ZM132.364 31.592H130.636C130.378 31.592 130.15 31.556 129.952 31.484C129.754 31.418 129.571 31.295 129.403 31.115L127.333 28.838C126.685 29.036 125.989 29.135 125.245 29.135C124.279 29.135 123.397 28.97 122.599 28.64C121.807 28.31 121.126 27.854 120.556 27.272C119.986 26.684 119.545 25.985 119.233 25.175C118.921 24.365 118.765 23.48 118.765 22.52C118.765 21.56 118.921 20.675 119.233 19.865C119.545 19.055 119.986 18.356 120.556 17.768C121.126 17.18 121.807 16.721 122.599 16.391C123.397 16.061 124.279 15.896 125.245 15.896C126.217 15.896 127.099 16.061 127.891 16.391C128.689 16.721 129.37 17.18 129.934 17.768C130.504 18.356 130.945 19.055 131.257 19.865C131.569 20.675 131.725 21.56 131.725 22.52C131.725 23.114 131.665 23.681 131.545 24.221C131.425 24.755 131.251 25.256 131.023 25.724C130.795 26.186 130.516 26.612 130.186 27.002C129.856 27.386 129.481 27.722 129.061 28.01L132.364 31.592ZM139.135 27.299C139.633 27.299 140.077 27.215 140.467 27.047C140.863 26.879 141.196 26.645 141.466 26.345C141.742 26.045 141.952 25.685 142.096 25.265C142.24 24.839 142.312 24.368 142.312 23.852V16.04H144.409V23.852C144.409 24.614 144.286 25.319 144.04 25.967C143.8 26.615 143.452 27.176 142.996 27.65C142.54 28.118 141.985 28.487 141.331 28.757C140.683 29.021 139.951 29.153 139.135 29.153C138.319 29.153 137.584 29.021 136.93 28.757C136.282 28.487 135.73 28.118 135.274 27.65C134.818 27.176 134.467 26.615 134.221 25.967C133.981 25.319 133.861 24.614 133.861 23.852V16.04H135.967V23.843C135.967 24.359 136.039 24.83 136.183 25.256C136.327 25.676 136.534 26.039 136.804 26.345C137.074 26.645 137.404 26.879 137.794 27.047C138.19 27.215 138.637 27.299 139.135 27.299ZM155.421 27.299L155.412 29H147.33V16.04H155.412V17.741H149.445V21.647H154.215V23.294H149.445V27.299H155.421ZM165.792 27.299L165.783 29H157.701V16.04H165.783V17.741H159.816V21.647H164.586V23.294H159.816V27.299H165.792ZM178.8 16.04V29H177.729C177.567 29 177.429 28.973 177.315 28.919C177.201 28.859 177.093 28.763 176.991 28.631L169.872 19.487C169.89 19.661 169.902 19.835 169.908 20.009C169.92 20.177 169.926 20.333 169.926 20.477V29H168.072V16.04H169.17C169.26 16.04 169.335 16.046 169.395 16.058C169.461 16.064 169.521 16.079 169.575 16.103C169.629 16.127 169.68 16.163 169.728 16.211C169.776 16.259 169.827 16.319 169.881 16.391L177.009 25.544C176.991 25.358 176.976 25.175 176.964 24.995C176.958 24.815 176.955 24.647 176.955 24.491V16.04H178.8Z" fill="url(#paint2_linear)" fill-opacity="0.4"/>
<path d="M84.954 39.1415C84.915 39.2065 84.8717 39.2563 84.824 39.291C84.7807 39.3213 84.7265 39.3365 84.6615 39.3365C84.5878 39.3365 84.5012 39.2997 84.4015 39.226C84.3018 39.1523 84.1762 39.0722 84.0245 38.9855C83.8772 38.8945 83.6973 38.8122 83.485 38.7385C83.277 38.6648 83.0235 38.628 82.7245 38.628C82.4428 38.628 82.1937 38.667 81.977 38.745C81.7647 38.8187 81.5848 38.9205 81.4375 39.0505C81.2945 39.1805 81.1862 39.3343 81.1125 39.512C81.0388 39.6853 81.002 39.8738 81.002 40.0775C81.002 40.3375 81.0648 40.5542 81.1905 40.7275C81.3205 40.8965 81.4895 41.0417 81.6975 41.163C81.9098 41.2843 82.1482 41.3905 82.4125 41.4815C82.6812 41.5682 82.9542 41.6592 83.2315 41.7545C83.5132 41.8498 83.7862 41.9582 84.0505 42.0795C84.3192 42.1965 84.5575 42.346 84.7655 42.528C84.9778 42.71 85.1468 42.9332 85.2725 43.1975C85.4025 43.4618 85.4675 43.7868 85.4675 44.1725C85.4675 44.5798 85.3982 44.9633 85.2595 45.323C85.1208 45.6783 84.9172 45.9882 84.6485 46.2525C84.3842 46.5168 84.057 46.7248 83.667 46.8765C83.2813 47.0282 82.8415 47.104 82.3475 47.104C81.7408 47.104 81.1905 46.9957 80.6965 46.779C80.2025 46.558 79.78 46.2612 79.429 45.8885L79.793 45.2905C79.8277 45.2428 79.8688 45.2038 79.9165 45.1735C79.9685 45.1388 80.0248 45.1215 80.0855 45.1215C80.1418 45.1215 80.2047 45.1453 80.274 45.193C80.3477 45.2363 80.43 45.2927 80.521 45.362C80.612 45.4313 80.716 45.5072 80.833 45.5895C80.95 45.6718 81.0822 45.7477 81.2295 45.817C81.3812 45.8863 81.5523 45.9448 81.743 45.9925C81.9337 46.0358 82.1482 46.0575 82.3865 46.0575C82.6855 46.0575 82.952 46.0163 83.186 45.934C83.42 45.8517 83.6172 45.7368 83.7775 45.5895C83.9422 45.4378 84.0678 45.258 84.1545 45.05C84.2412 44.842 84.2845 44.6102 84.2845 44.3545C84.2845 44.0728 84.2195 43.8432 84.0895 43.6655C83.9638 43.4835 83.797 43.3318 83.589 43.2105C83.381 43.0892 83.1427 42.9873 82.874 42.905C82.6053 42.8183 82.3323 42.7317 82.055 42.645C81.7777 42.554 81.5047 42.45 81.236 42.333C80.9673 42.216 80.729 42.0643 80.521 41.878C80.313 41.6917 80.144 41.4598 80.014 41.1825C79.8883 40.9008 79.8255 40.5542 79.8255 40.1425C79.8255 39.8132 79.8883 39.4947 80.014 39.187C80.144 38.8793 80.3303 38.6063 80.573 38.368C80.82 38.1297 81.1212 37.939 81.4765 37.796C81.8362 37.653 82.2478 37.5815 82.7115 37.5815C83.2315 37.5815 83.7038 37.6638 84.1285 37.8285C84.5575 37.9932 84.9345 38.2315 85.2595 38.5435L84.954 39.1415ZM95.8541 42.346C95.8541 43.0437 95.7436 43.685 95.5226 44.27C95.3016 44.8507 94.9896 45.3512 94.5866 45.7715C94.1836 46.1918 93.6983 46.519 93.1306 46.753C92.5673 46.9827 91.9433 47.0975 91.2586 47.0975C90.5739 47.0975 89.9499 46.9827 89.3866 46.753C88.8233 46.519 88.3401 46.1918 87.9371 45.7715C87.5341 45.3512 87.2221 44.8507 87.0011 44.27C86.7801 43.685 86.6696 43.0437 86.6696 42.346C86.6696 41.6483 86.7801 41.0092 87.0011 40.4285C87.2221 39.8435 87.5341 39.3408 87.9371 38.9205C88.3401 38.4958 88.8233 38.1665 89.3866 37.9325C89.9499 37.6985 90.5739 37.5815 91.2586 37.5815C91.9433 37.5815 92.5673 37.6985 93.1306 37.9325C93.6983 38.1665 94.1836 38.4958 94.5866 38.9205C94.9896 39.3408 95.3016 39.8435 95.5226 40.4285C95.7436 41.0092 95.8541 41.6483 95.8541 42.346ZM94.5606 42.346C94.5606 41.774 94.4826 41.2605 94.3266 40.8055C94.1706 40.3505 93.9496 39.967 93.6636 39.655C93.3776 39.3387 93.0309 39.096 92.6236 38.927C92.2163 38.758 91.7613 38.6735 91.2586 38.6735C90.7603 38.6735 90.3074 38.758 89.9001 38.927C89.4928 39.096 89.1439 39.3387 88.8536 39.655C88.5676 39.967 88.3466 40.3505 88.1906 40.8055C88.0346 41.2605 87.9566 41.774 87.9566 42.346C87.9566 42.918 88.0346 43.4315 88.1906 43.8865C88.3466 44.3372 88.5676 44.7207 88.8536 45.037C89.1439 45.349 89.4928 45.5895 89.9001 45.7585C90.3074 45.9232 90.7603 46.0055 91.2586 46.0055C91.7613 46.0055 92.2163 45.9232 92.6236 45.7585C93.0309 45.5895 93.3776 45.349 93.6636 45.037C93.9496 44.7207 94.1706 44.3372 94.3266 43.8865C94.4826 43.4315 94.5606 42.918 94.5606 42.346ZM102.943 45.9405V47H97.6583V37.6855H98.9128V45.9405H102.943ZM107.588 45.999C107.973 45.999 108.318 45.934 108.621 45.804C108.925 45.674 109.18 45.492 109.388 45.258C109.601 45.024 109.761 44.7445 109.869 44.4195C109.982 44.0945 110.038 43.737 110.038 43.347V37.6855H111.293V43.347C111.293 43.8843 111.206 44.3827 111.033 44.842C110.864 45.3013 110.619 45.7 110.298 46.038C109.982 46.3717 109.594 46.6338 109.135 46.8245C108.675 47.0152 108.16 47.1105 107.588 47.1105C107.016 47.1105 106.5 47.0152 106.041 46.8245C105.581 46.6338 105.191 46.3717 104.871 46.038C104.55 45.7 104.303 45.3013 104.13 44.842C103.961 44.3827 103.876 43.8843 103.876 43.347V37.6855H105.131V43.3405C105.131 43.7305 105.185 44.088 105.293 44.413C105.406 44.738 105.566 45.0175 105.774 45.2515C105.987 45.4855 106.244 45.6697 106.548 45.804C106.855 45.934 107.202 45.999 107.588 45.999ZM119.851 38.745H116.835V47H115.581V38.745H112.558V37.6855H119.851V38.745ZM122.494 47H121.233V37.6855H122.494V47ZM133.483 42.346C133.483 43.0437 133.373 43.685 133.152 44.27C132.931 44.8507 132.619 45.3512 132.216 45.7715C131.813 46.1918 131.327 46.519 130.76 46.753C130.196 46.9827 129.572 47.0975 128.888 47.0975C128.203 47.0975 127.579 46.9827 127.016 46.753C126.452 46.519 125.969 46.1918 125.566 45.7715C125.163 45.3512 124.851 44.8507 124.63 44.27C124.409 43.685 124.299 43.0437 124.299 42.346C124.299 41.6483 124.409 41.0092 124.63 40.4285C124.851 39.8435 125.163 39.3408 125.566 38.9205C125.969 38.4958 126.452 38.1665 127.016 37.9325C127.579 37.6985 128.203 37.5815 128.888 37.5815C129.572 37.5815 130.196 37.6985 130.76 37.9325C131.327 38.1665 131.813 38.4958 132.216 38.9205C132.619 39.3408 132.931 39.8435 133.152 40.4285C133.373 41.0092 133.483 41.6483 133.483 42.346ZM132.19 42.346C132.19 41.774 132.112 41.2605 131.956 40.8055C131.8 40.3505 131.579 39.967 131.293 39.655C131.007 39.3387 130.66 39.096 130.252 38.927C129.845 38.758 129.39 38.6735 128.888 38.6735C128.389 38.6735 127.936 38.758 127.529 38.927C127.122 39.096 126.773 39.3387 126.483 39.655C126.197 39.967 125.976 40.3505 125.82 40.8055C125.664 41.2605 125.586 41.774 125.586 42.346C125.586 42.918 125.664 43.4315 125.82 43.8865C125.976 44.3372 126.197 44.7207 126.483 45.037C126.773 45.349 127.122 45.5895 127.529 45.7585C127.936 45.9232 128.389 46.0055 128.888 46.0055C129.39 46.0055 129.845 45.9232 130.252 45.7585C130.66 45.5895 131.007 45.349 131.293 45.037C131.579 44.7207 131.8 44.3372 131.956 43.8865C132.112 43.4315 132.19 42.918 132.19 42.346ZM142.834 37.6855V47H142.203C142.103 47 142.019 46.9827 141.95 46.948C141.885 46.9133 141.82 46.8548 141.755 46.7725L136.366 39.7525C136.375 39.8608 136.381 39.967 136.386 40.071C136.39 40.175 136.392 40.2725 136.392 40.3635V47H135.287V37.6855H135.937C135.993 37.6855 136.041 37.6898 136.08 37.6985C136.119 37.7028 136.154 37.7137 136.184 37.731C136.214 37.744 136.245 37.7657 136.275 37.796C136.305 37.822 136.338 37.8567 136.373 37.9L141.761 44.9135C141.752 44.8008 141.744 44.6925 141.735 44.5885C141.731 44.4802 141.729 44.3783 141.729 44.283V37.6855H142.834ZM149.979 39.1415C149.94 39.2065 149.897 39.2563 149.849 39.291C149.806 39.3213 149.752 39.3365 149.687 39.3365C149.613 39.3365 149.527 39.2997 149.427 39.226C149.327 39.1523 149.202 39.0722 149.05 38.9855C148.903 38.8945 148.723 38.8122 148.51 38.7385C148.302 38.6648 148.049 38.628 147.75 38.628C147.468 38.628 147.219 38.667 147.002 38.745C146.79 38.8187 146.61 38.9205 146.463 39.0505C146.32 39.1805 146.212 39.3343 146.138 39.512C146.064 39.6853 146.027 39.8738 146.027 40.0775C146.027 40.3375 146.09 40.5542 146.216 40.7275C146.346 40.8965 146.515 41.0417 146.723 41.163C146.935 41.2843 147.174 41.3905 147.438 41.4815C147.707 41.5682 147.98 41.6592 148.257 41.7545C148.539 41.8498 148.812 41.9582 149.076 42.0795C149.345 42.1965 149.583 42.346 149.791 42.528C150.003 42.71 150.172 42.9332 150.298 43.1975C150.428 43.4618 150.493 43.7868 150.493 44.1725C150.493 44.5798 150.424 44.9633 150.285 45.323C150.146 45.6783 149.943 45.9882 149.674 46.2525C149.41 46.5168 149.082 46.7248 148.692 46.8765C148.307 47.0282 147.867 47.104 147.373 47.104C146.766 47.104 146.216 46.9957 145.722 46.779C145.228 46.558 144.805 46.2612 144.454 45.8885L144.818 45.2905C144.853 45.2428 144.894 45.2038 144.942 45.1735C144.994 45.1388 145.05 45.1215 145.111 45.1215C145.167 45.1215 145.23 45.1453 145.299 45.193C145.373 45.2363 145.455 45.2927 145.546 45.362C145.637 45.4313 145.741 45.5072 145.858 45.5895C145.975 45.6718 146.108 45.7477 146.255 45.817C146.407 45.8863 146.578 45.9448 146.768 45.9925C146.959 46.0358 147.174 46.0575 147.412 46.0575C147.711 46.0575 147.977 46.0163 148.211 45.934C148.445 45.8517 148.643 45.7368 148.803 45.5895C148.968 45.4378 149.093 45.258 149.18 45.05C149.267 44.842 149.31 44.6102 149.31 44.3545C149.31 44.0728 149.245 43.8432 149.115 43.6655C148.989 43.4835 148.822 43.3318 148.614 43.2105C148.406 43.0892 148.168 42.9873 147.899 42.905C147.631 42.8183 147.358 42.7317 147.08 42.645C146.803 42.554 146.53 42.45 146.261 42.333C145.993 42.216 145.754 42.0643 145.546 41.878C145.338 41.6917 145.169 41.4598 145.039 41.1825C144.914 40.9008 144.851 40.5542 144.851 40.1425C144.851 39.8132 144.914 39.4947 145.039 39.187C145.169 38.8793 145.356 38.6063 145.598 38.368C145.845 38.1297 146.147 37.939 146.502 37.796C146.862 37.653 147.273 37.5815 147.737 37.5815C148.257 37.5815 148.729 37.6638 149.154 37.8285C149.583 37.9932 149.96 38.2315 150.285 38.5435L149.979 39.1415Z" fill="#858181"/>
<path d="M84.954 39.1415C84.915 39.2065 84.8717 39.2563 84.824 39.291C84.7807 39.3213 84.7265 39.3365 84.6615 39.3365C84.5878 39.3365 84.5012 39.2997 84.4015 39.226C84.3018 39.1523 84.1762 39.0722 84.0245 38.9855C83.8772 38.8945 83.6973 38.8122 83.485 38.7385C83.277 38.6648 83.0235 38.628 82.7245 38.628C82.4428 38.628 82.1937 38.667 81.977 38.745C81.7647 38.8187 81.5848 38.9205 81.4375 39.0505C81.2945 39.1805 81.1862 39.3343 81.1125 39.512C81.0388 39.6853 81.002 39.8738 81.002 40.0775C81.002 40.3375 81.0648 40.5542 81.1905 40.7275C81.3205 40.8965 81.4895 41.0417 81.6975 41.163C81.9098 41.2843 82.1482 41.3905 82.4125 41.4815C82.6812 41.5682 82.9542 41.6592 83.2315 41.7545C83.5132 41.8498 83.7862 41.9582 84.0505 42.0795C84.3192 42.1965 84.5575 42.346 84.7655 42.528C84.9778 42.71 85.1468 42.9332 85.2725 43.1975C85.4025 43.4618 85.4675 43.7868 85.4675 44.1725C85.4675 44.5798 85.3982 44.9633 85.2595 45.323C85.1208 45.6783 84.9172 45.9882 84.6485 46.2525C84.3842 46.5168 84.057 46.7248 83.667 46.8765C83.2813 47.0282 82.8415 47.104 82.3475 47.104C81.7408 47.104 81.1905 46.9957 80.6965 46.779C80.2025 46.558 79.78 46.2612 79.429 45.8885L79.793 45.2905C79.8277 45.2428 79.8688 45.2038 79.9165 45.1735C79.9685 45.1388 80.0248 45.1215 80.0855 45.1215C80.1418 45.1215 80.2047 45.1453 80.274 45.193C80.3477 45.2363 80.43 45.2927 80.521 45.362C80.612 45.4313 80.716 45.5072 80.833 45.5895C80.95 45.6718 81.0822 45.7477 81.2295 45.817C81.3812 45.8863 81.5523 45.9448 81.743 45.9925C81.9337 46.0358 82.1482 46.0575 82.3865 46.0575C82.6855 46.0575 82.952 46.0163 83.186 45.934C83.42 45.8517 83.6172 45.7368 83.7775 45.5895C83.9422 45.4378 84.0678 45.258 84.1545 45.05C84.2412 44.842 84.2845 44.6102 84.2845 44.3545C84.2845 44.0728 84.2195 43.8432 84.0895 43.6655C83.9638 43.4835 83.797 43.3318 83.589 43.2105C83.381 43.0892 83.1427 42.9873 82.874 42.905C82.6053 42.8183 82.3323 42.7317 82.055 42.645C81.7777 42.554 81.5047 42.45 81.236 42.333C80.9673 42.216 80.729 42.0643 80.521 41.878C80.313 41.6917 80.144 41.4598 80.014 41.1825C79.8883 40.9008 79.8255 40.5542 79.8255 40.1425C79.8255 39.8132 79.8883 39.4947 80.014 39.187C80.144 38.8793 80.3303 38.6063 80.573 38.368C80.82 38.1297 81.1212 37.939 81.4765 37.796C81.8362 37.653 82.2478 37.5815 82.7115 37.5815C83.2315 37.5815 83.7038 37.6638 84.1285 37.8285C84.5575 37.9932 84.9345 38.2315 85.2595 38.5435L84.954 39.1415ZM95.8541 42.346C95.8541 43.0437 95.7436 43.685 95.5226 44.27C95.3016 44.8507 94.9896 45.3512 94.5866 45.7715C94.1836 46.1918 93.6983 46.519 93.1306 46.753C92.5673 46.9827 91.9433 47.0975 91.2586 47.0975C90.5739 47.0975 89.9499 46.9827 89.3866 46.753C88.8233 46.519 88.3401 46.1918 87.9371 45.7715C87.5341 45.3512 87.2221 44.8507 87.0011 44.27C86.7801 43.685 86.6696 43.0437 86.6696 42.346C86.6696 41.6483 86.7801 41.0092 87.0011 40.4285C87.2221 39.8435 87.5341 39.3408 87.9371 38.9205C88.3401 38.4958 88.8233 38.1665 89.3866 37.9325C89.9499 37.6985 90.5739 37.5815 91.2586 37.5815C91.9433 37.5815 92.5673 37.6985 93.1306 37.9325C93.6983 38.1665 94.1836 38.4958 94.5866 38.9205C94.9896 39.3408 95.3016 39.8435 95.5226 40.4285C95.7436 41.0092 95.8541 41.6483 95.8541 42.346ZM94.5606 42.346C94.5606 41.774 94.4826 41.2605 94.3266 40.8055C94.1706 40.3505 93.9496 39.967 93.6636 39.655C93.3776 39.3387 93.0309 39.096 92.6236 38.927C92.2163 38.758 91.7613 38.6735 91.2586 38.6735C90.7603 38.6735 90.3074 38.758 89.9001 38.927C89.4928 39.096 89.1439 39.3387 88.8536 39.655C88.5676 39.967 88.3466 40.3505 88.1906 40.8055C88.0346 41.2605 87.9566 41.774 87.9566 42.346C87.9566 42.918 88.0346 43.4315 88.1906 43.8865C88.3466 44.3372 88.5676 44.7207 88.8536 45.037C89.1439 45.349 89.4928 45.5895 89.9001 45.7585C90.3074 45.9232 90.7603 46.0055 91.2586 46.0055C91.7613 46.0055 92.2163 45.9232 92.6236 45.7585C93.0309 45.5895 93.3776 45.349 93.6636 45.037C93.9496 44.7207 94.1706 44.3372 94.3266 43.8865C94.4826 43.4315 94.5606 42.918 94.5606 42.346ZM102.943 45.9405V47H97.6583V37.6855H98.9128V45.9405H102.943ZM107.588 45.999C107.973 45.999 108.318 45.934 108.621 45.804C108.925 45.674 109.18 45.492 109.388 45.258C109.601 45.024 109.761 44.7445 109.869 44.4195C109.982 44.0945 110.038 43.737 110.038 43.347V37.6855H111.293V43.347C111.293 43.8843 111.206 44.3827 111.033 44.842C110.864 45.3013 110.619 45.7 110.298 46.038C109.982 46.3717 109.594 46.6338 109.135 46.8245C108.675 47.0152 108.16 47.1105 107.588 47.1105C107.016 47.1105 106.5 47.0152 106.041 46.8245C105.581 46.6338 105.191 46.3717 104.871 46.038C104.55 45.7 104.303 45.3013 104.13 44.842C103.961 44.3827 103.876 43.8843 103.876 43.347V37.6855H105.131V43.3405C105.131 43.7305 105.185 44.088 105.293 44.413C105.406 44.738 105.566 45.0175 105.774 45.2515C105.987 45.4855 106.244 45.6697 106.548 45.804C106.855 45.934 107.202 45.999 107.588 45.999ZM119.851 38.745H116.835V47H115.581V38.745H112.558V37.6855H119.851V38.745ZM122.494 47H121.233V37.6855H122.494V47ZM133.483 42.346C133.483 43.0437 133.373 43.685 133.152 44.27C132.931 44.8507 132.619 45.3512 132.216 45.7715C131.813 46.1918 131.327 46.519 130.76 46.753C130.196 46.9827 129.572 47.0975 128.888 47.0975C128.203 47.0975 127.579 46.9827 127.016 46.753C126.452 46.519 125.969 46.1918 125.566 45.7715C125.163 45.3512 124.851 44.8507 124.63 44.27C124.409 43.685 124.299 43.0437 124.299 42.346C124.299 41.6483 124.409 41.0092 124.63 40.4285C124.851 39.8435 125.163 39.3408 125.566 38.9205C125.969 38.4958 126.452 38.1665 127.016 37.9325C127.579 37.6985 128.203 37.5815 128.888 37.5815C129.572 37.5815 130.196 37.6985 130.76 37.9325C131.327 38.1665 131.813 38.4958 132.216 38.9205C132.619 39.3408 132.931 39.8435 133.152 40.4285C133.373 41.0092 133.483 41.6483 133.483 42.346ZM132.19 42.346C132.19 41.774 132.112 41.2605 131.956 40.8055C131.8 40.3505 131.579 39.967 131.293 39.655C131.007 39.3387 130.66 39.096 130.252 38.927C129.845 38.758 129.39 38.6735 128.888 38.6735C128.389 38.6735 127.936 38.758 127.529 38.927C127.122 39.096 126.773 39.3387 126.483 39.655C126.197 39.967 125.976 40.3505 125.82 40.8055C125.664 41.2605 125.586 41.774 125.586 42.346C125.586 42.918 125.664 43.4315 125.82 43.8865C125.976 44.3372 126.197 44.7207 126.483 45.037C126.773 45.349 127.122 45.5895 127.529 45.7585C127.936 45.9232 128.389 46.0055 128.888 46.0055C129.39 46.0055 129.845 45.9232 130.252 45.7585C130.66 45.5895 131.007 45.349 131.293 45.037C131.579 44.7207 131.8 44.3372 131.956 43.8865C132.112 43.4315 132.19 42.918 132.19 42.346ZM142.834 37.6855V47H142.203C142.103 47 142.019 46.9827 141.95 46.948C141.885 46.9133 141.82 46.8548 141.755 46.7725L136.366 39.7525C136.375 39.8608 136.381 39.967 136.386 40.071C136.39 40.175 136.392 40.2725 136.392 40.3635V47H135.287V37.6855H135.937C135.993 37.6855 136.041 37.6898 136.08 37.6985C136.119 37.7028 136.154 37.7137 136.184 37.731C136.214 37.744 136.245 37.7657 136.275 37.796C136.305 37.822 136.338 37.8567 136.373 37.9L141.761 44.9135C141.752 44.8008 141.744 44.6925 141.735 44.5885C141.731 44.4802 141.729 44.3783 141.729 44.283V37.6855H142.834ZM149.979 39.1415C149.94 39.2065 149.897 39.2563 149.849 39.291C149.806 39.3213 149.752 39.3365 149.687 39.3365C149.613 39.3365 149.527 39.2997 149.427 39.226C149.327 39.1523 149.202 39.0722 149.05 38.9855C148.903 38.8945 148.723 38.8122 148.51 38.7385C148.302 38.6648 148.049 38.628 147.75 38.628C147.468 38.628 147.219 38.667 147.002 38.745C146.79 38.8187 146.61 38.9205 146.463 39.0505C146.32 39.1805 146.212 39.3343 146.138 39.512C146.064 39.6853 146.027 39.8738 146.027 40.0775C146.027 40.3375 146.09 40.5542 146.216 40.7275C146.346 40.8965 146.515 41.0417 146.723 41.163C146.935 41.2843 147.174 41.3905 147.438 41.4815C147.707 41.5682 147.98 41.6592 148.257 41.7545C148.539 41.8498 148.812 41.9582 149.076 42.0795C149.345 42.1965 149.583 42.346 149.791 42.528C150.003 42.71 150.172 42.9332 150.298 43.1975C150.428 43.4618 150.493 43.7868 150.493 44.1725C150.493 44.5798 150.424 44.9633 150.285 45.323C150.146 45.6783 149.943 45.9882 149.674 46.2525C149.41 46.5168 149.082 46.7248 148.692 46.8765C148.307 47.0282 147.867 47.104 147.373 47.104C146.766 47.104 146.216 46.9957 145.722 46.779C145.228 46.558 144.805 46.2612 144.454 45.8885L144.818 45.2905C144.853 45.2428 144.894 45.2038 144.942 45.1735C144.994 45.1388 145.05 45.1215 145.111 45.1215C145.167 45.1215 145.23 45.1453 145.299 45.193C145.373 45.2363 145.455 45.2927 145.546 45.362C145.637 45.4313 145.741 45.5072 145.858 45.5895C145.975 45.6718 146.108 45.7477 146.255 45.817C146.407 45.8863 146.578 45.9448 146.768 45.9925C146.959 46.0358 147.174 46.0575 147.412 46.0575C147.711 46.0575 147.977 46.0163 148.211 45.934C148.445 45.8517 148.643 45.7368 148.803 45.5895C148.968 45.4378 149.093 45.258 149.18 45.05C149.267 44.842 149.31 44.6102 149.31 44.3545C149.31 44.0728 149.245 43.8432 149.115 43.6655C148.989 43.4835 148.822 43.3318 148.614 43.2105C148.406 43.0892 148.168 42.9873 147.899 42.905C147.631 42.8183 147.358 42.7317 147.08 42.645C146.803 42.554 146.53 42.45 146.261 42.333C145.993 42.216 145.754 42.0643 145.546 41.878C145.338 41.6917 145.169 41.4598 145.039 41.1825C144.914 40.9008 144.851 40.5542 144.851 40.1425C144.851 39.8132 144.914 39.4947 145.039 39.187C145.169 38.8793 145.356 38.6063 145.598 38.368C145.845 38.1297 146.147 37.939 146.502 37.796C146.862 37.653 147.273 37.5815 147.737 37.5815C148.257 37.5815 148.729 37.6638 149.154 37.8285C149.583 37.9932 149.96 38.2315 150.285 38.5435L149.979 39.1415Z" fill="url(#paint3_linear)" fill-opacity="0.4"/>
<defs>
<linearGradient id="paint0_linear" x1="30" y1="0" x2="30" y2="60" gradientUnits="userSpaceOnUse">
<stop stop-color="white"/>
<stop offset="1" stop-color="white" stop-opacity="0"/>
</linearGradient>
<linearGradient id="paint1_linear" x1="97.5" y1="11.9592" x2="97.5" y2="32.1021" gradientUnits="userSpaceOnUse">
<stop stop-color="#FAFAF5"/>
<stop offset="1" stop-color="white" stop-opacity="0"/>
</linearGradient>
<linearGradient id="paint2_linear" x1="149.5" y1="11" x2="149.5" y2="37" gradientUnits="userSpaceOnUse">
<stop stop-color="#FAFAF5"/>
<stop offset="1" stop-color="white" stop-opacity="0"/>
</linearGradient>
<linearGradient id="paint3_linear" x1="116" y1="34" x2="116" y2="59" gradientUnits="userSpaceOnUse">
<stop stop-color="white"/>
<stop offset="1" stop-color="white" stop-opacity="0"/>
</linearGradient>
</defs>
</svg>
