<svg width="176" height="60" viewBox="0 0 176 60" fill="none" xmlns="http://www.w3.org/2000/svg">
<circle cx="30" cy="30" r="30" fill="#FF5858"/>
<circle cx="30" cy="30" r="30" fill="url(#paint0_linear)" fill-opacity="0.3"/>
<path d="M41.5574 19L29 40.75H54.1147L41.5574 19Z" fill="#FFF7F7"/>
<path d="M30.5574 19L18 40.75H43.1147L30.5574 19Z" fill="#CACACA"/>
<path d="M18.5574 19L6 40.75H31.1147L18.5574 19Z" fill="#F4F1D0"/>
<path d="M86.722 31.9592L83.95 27.0632H82.762V31.9592H80.242V19.3952H84.958C85.93 19.3952 86.758 19.5692 87.442 19.9172C88.126 20.2532 88.636 20.7152 88.972 21.3032C89.32 21.8792 89.494 22.5272 89.494 23.2472C89.494 24.0752 89.254 24.8252 88.774 25.4972C88.294 26.1572 87.58 26.6132 86.632 26.8652L89.638 31.9592H86.722ZM82.762 25.1732H84.868C85.552 25.1732 86.062 25.0112 86.398 24.6872C86.734 24.3512 86.902 23.8892 86.902 23.3012C86.902 22.7252 86.734 22.2812 86.398 21.9692C86.062 21.6452 85.552 21.4832 84.868 21.4832H82.762V25.1732ZM94.2933 21.4292V24.5792H98.5233V26.5772H94.2933V29.9072H99.0633V31.9592H91.7733V19.3772H99.0633V21.4292H94.2933ZM105.745 19.3952C107.065 19.3952 108.223 19.6532 109.219 20.1692C110.227 20.6852 111.001 21.4232 111.541 22.3832C112.093 23.3312 112.369 24.4352 112.369 25.6952C112.369 26.9552 112.093 28.0592 111.541 29.0072C111.001 29.9432 110.227 30.6692 109.219 31.1852C108.223 31.7012 107.065 31.9592 105.745 31.9592H101.353V19.3952H105.745ZM105.655 29.8172C106.975 29.8172 107.995 29.4572 108.715 28.7372C109.435 28.0172 109.795 27.0032 109.795 25.6952C109.795 24.3872 109.435 23.3672 108.715 22.6352C107.995 21.8912 106.975 21.5192 105.655 21.5192H103.873V29.8172H105.655Z" fill="#FF5858"/>
<path d="M86.722 31.9592L83.95 27.0632H82.762V31.9592H80.242V19.3952H84.958C85.93 19.3952 86.758 19.5692 87.442 19.9172C88.126 20.2532 88.636 20.7152 88.972 21.3032C89.32 21.8792 89.494 22.5272 89.494 23.2472C89.494 24.0752 89.254 24.8252 88.774 25.4972C88.294 26.1572 87.58 26.6132 86.632 26.8652L89.638 31.9592H86.722ZM82.762 25.1732H84.868C85.552 25.1732 86.062 25.0112 86.398 24.6872C86.734 24.3512 86.902 23.8892 86.902 23.3012C86.902 22.7252 86.734 22.2812 86.398 21.9692C86.062 21.6452 85.552 21.4832 84.868 21.4832H82.762V25.1732ZM94.2933 21.4292V24.5792H98.5233V26.5772H94.2933V29.9072H99.0633V31.9592H91.7733V19.3772H99.0633V21.4292H94.2933ZM105.745 19.3952C107.065 19.3952 108.223 19.6532 109.219 20.1692C110.227 20.6852 111.001 21.4232 111.541 22.3832C112.093 23.3312 112.369 24.4352 112.369 25.6952C112.369 26.9552 112.093 28.0592 111.541 29.0072C111.001 29.9432 110.227 30.6692 109.219 31.1852C108.223 31.7012 107.065 31.9592 105.745 31.9592H101.353V19.3952H105.745ZM105.655 29.8172C106.975 29.8172 107.995 29.4572 108.715 28.7372C109.435 28.0172 109.795 27.0032 109.795 25.6952C109.795 24.3872 109.435 23.3672 108.715 22.6352C107.995 21.8912 106.975 21.5192 105.655 21.5192H103.873V29.8172H105.655Z" fill="url(#paint1_linear)" fill-opacity="0.4"/>
<path d="M128.602 33.214L126.694 30.928C126.166 31.06 125.626 31.126 125.074 31.126C123.898 31.126 122.818 30.85 121.834 30.298C120.85 29.746 120.07 28.984 119.494 28.012C118.918 27.028 118.63 25.918 118.63 24.682C118.63 23.458 118.918 22.36 119.494 21.388C120.07 20.404 120.85 19.636 121.834 19.084C122.818 18.532 123.898 18.256 125.074 18.256C126.262 18.256 127.342 18.532 128.314 19.084C129.298 19.636 130.072 20.404 130.636 21.388C131.212 22.36 131.5 23.458 131.5 24.682C131.5 25.798 131.26 26.818 130.78 27.742C130.312 28.654 129.67 29.398 128.854 29.974L131.734 33.214H128.602ZM121.222 24.682C121.222 25.522 121.384 26.26 121.708 26.896C122.032 27.532 122.482 28.024 123.058 28.372C123.646 28.708 124.318 28.876 125.074 28.876C125.83 28.876 126.496 28.708 127.072 28.372C127.648 28.024 128.098 27.532 128.422 26.896C128.746 26.26 128.908 25.522 128.908 24.682C128.908 23.842 128.746 23.11 128.422 22.486C128.098 21.85 127.648 21.364 127.072 21.028C126.496 20.692 125.83 20.524 125.074 20.524C124.318 20.524 123.646 20.692 123.058 21.028C122.482 21.364 122.032 21.85 121.708 22.486C121.384 23.11 121.222 23.842 121.222 24.682ZM135.894 18.436V26.212C135.894 27.064 136.116 27.718 136.56 28.174C137.004 28.618 137.628 28.84 138.432 28.84C139.248 28.84 139.878 28.618 140.322 28.174C140.766 27.718 140.988 27.064 140.988 26.212V18.436H143.526V26.194C143.526 27.262 143.292 28.168 142.824 28.912C142.368 29.644 141.75 30.196 140.97 30.568C140.202 30.94 139.344 31.126 138.396 31.126C137.46 31.126 136.608 30.94 135.84 30.568C135.084 30.196 134.484 29.644 134.04 28.912C133.596 28.168 133.374 27.262 133.374 26.194V18.436H135.894ZM148.481 20.47V23.62H152.711V25.618H148.481V28.948H153.251V31H145.961V18.418H153.251V20.47H148.481ZM158.061 20.47V23.62H162.291V25.618H158.061V28.948H162.831V31H155.541V18.418H162.831V20.47H158.061ZM175.867 31H173.347L167.641 22.378V31H165.121V18.418H167.641L173.347 27.058V18.418H175.867V31Z" fill="#FF5858"/>
<path d="M128.602 33.214L126.694 30.928C126.166 31.06 125.626 31.126 125.074 31.126C123.898 31.126 122.818 30.85 121.834 30.298C120.85 29.746 120.07 28.984 119.494 28.012C118.918 27.028 118.63 25.918 118.63 24.682C118.63 23.458 118.918 22.36 119.494 21.388C120.07 20.404 120.85 19.636 121.834 19.084C122.818 18.532 123.898 18.256 125.074 18.256C126.262 18.256 127.342 18.532 128.314 19.084C129.298 19.636 130.072 20.404 130.636 21.388C131.212 22.36 131.5 23.458 131.5 24.682C131.5 25.798 131.26 26.818 130.78 27.742C130.312 28.654 129.67 29.398 128.854 29.974L131.734 33.214H128.602ZM121.222 24.682C121.222 25.522 121.384 26.26 121.708 26.896C122.032 27.532 122.482 28.024 123.058 28.372C123.646 28.708 124.318 28.876 125.074 28.876C125.83 28.876 126.496 28.708 127.072 28.372C127.648 28.024 128.098 27.532 128.422 26.896C128.746 26.26 128.908 25.522 128.908 24.682C128.908 23.842 128.746 23.11 128.422 22.486C128.098 21.85 127.648 21.364 127.072 21.028C126.496 20.692 125.83 20.524 125.074 20.524C124.318 20.524 123.646 20.692 123.058 21.028C122.482 21.364 122.032 21.85 121.708 22.486C121.384 23.11 121.222 23.842 121.222 24.682ZM135.894 18.436V26.212C135.894 27.064 136.116 27.718 136.56 28.174C137.004 28.618 137.628 28.84 138.432 28.84C139.248 28.84 139.878 28.618 140.322 28.174C140.766 27.718 140.988 27.064 140.988 26.212V18.436H143.526V26.194C143.526 27.262 143.292 28.168 142.824 28.912C142.368 29.644 141.75 30.196 140.97 30.568C140.202 30.94 139.344 31.126 138.396 31.126C137.46 31.126 136.608 30.94 135.84 30.568C135.084 30.196 134.484 29.644 134.04 28.912C133.596 28.168 133.374 27.262 133.374 26.194V18.436H135.894ZM148.481 20.47V23.62H152.711V25.618H148.481V28.948H153.251V31H145.961V18.418H153.251V20.47H148.481ZM158.061 20.47V23.62H162.291V25.618H158.061V28.948H162.831V31H155.541V18.418H162.831V20.47H158.061ZM175.867 31H173.347L167.641 22.378V31H165.121V18.418H167.641L173.347 27.058V18.418H175.867V31Z" fill="url(#paint2_linear)" fill-opacity="0.4"/>
<path d="M82.874 49.091C82.276 49.091 81.7387 48.987 81.262 48.779C80.794 48.5623 80.4257 48.2677 80.157 47.895C79.8883 47.5137 79.7497 47.076 79.741 46.582H81.002C81.0453 47.0067 81.2187 47.3663 81.522 47.661C81.834 47.947 82.2847 48.09 82.874 48.09C83.4373 48.09 83.8793 47.9513 84.2 47.674C84.5293 47.388 84.694 47.024 84.694 46.582C84.694 46.2353 84.5987 45.9537 84.408 45.737C84.2173 45.5203 83.979 45.3557 83.693 45.243C83.407 45.1303 83.0213 45.009 82.536 44.879C81.938 44.723 81.457 44.567 81.093 44.411C80.7377 44.255 80.43 44.0123 80.17 43.683C79.9187 43.345 79.793 42.8943 79.793 42.331C79.793 41.837 79.9187 41.3993 80.17 41.018C80.4213 40.6367 80.7723 40.342 81.223 40.134C81.6823 39.926 82.2067 39.822 82.796 39.822C83.6453 39.822 84.3387 40.0343 84.876 40.459C85.422 40.8837 85.7297 41.447 85.799 42.149H84.499C84.4557 41.8023 84.2737 41.499 83.953 41.239C83.6323 40.9703 83.2077 40.836 82.679 40.836C82.185 40.836 81.782 40.966 81.47 41.226C81.158 41.4773 81.002 41.8327 81.002 42.292C81.002 42.6213 81.093 42.89 81.275 43.098C81.4657 43.306 81.6953 43.4663 81.964 43.579C82.2413 43.683 82.627 43.8043 83.121 43.943C83.719 44.1077 84.2 44.2723 84.564 44.437C84.928 44.593 85.24 44.84 85.5 45.178C85.76 45.5073 85.89 45.958 85.89 46.53C85.89 46.972 85.773 47.388 85.539 47.778C85.305 48.168 84.9583 48.4843 84.499 48.727C84.0397 48.9697 83.498 49.091 82.874 49.091ZM91.7389 49.091C90.8982 49.091 90.1312 48.896 89.4379 48.506C88.7445 48.1073 88.1942 47.557 87.7869 46.855C87.3882 46.1443 87.1889 45.347 87.1889 44.463C87.1889 43.579 87.3882 42.786 87.7869 42.084C88.1942 41.3733 88.7445 40.823 89.4379 40.433C90.1312 40.0343 90.8982 39.835 91.7389 39.835C92.5882 39.835 93.3595 40.0343 94.0529 40.433C94.7462 40.823 95.2922 41.369 95.6909 42.071C96.0895 42.773 96.2889 43.5703 96.2889 44.463C96.2889 45.3557 96.0895 46.153 95.6909 46.855C95.2922 47.557 94.7462 48.1073 94.0529 48.506C93.3595 48.896 92.5882 49.091 91.7389 49.091ZM91.7389 48.064C92.3715 48.064 92.9392 47.9167 93.4419 47.622C93.9532 47.3273 94.3519 46.907 94.6379 46.361C94.9326 45.815 95.0799 45.1823 95.0799 44.463C95.0799 43.735 94.9326 43.1023 94.6379 42.565C94.3519 42.019 93.9575 41.5987 93.4549 41.304C92.9522 41.0093 92.3802 40.862 91.7389 40.862C91.0975 40.862 90.5255 41.0093 90.0229 41.304C89.5202 41.5987 89.1215 42.019 88.8269 42.565C88.5409 43.1023 88.3979 43.735 88.3979 44.463C88.3979 45.1823 88.5409 45.815 88.8269 46.361C89.1215 46.907 89.5202 47.3273 90.0229 47.622C90.5342 47.9167 91.1062 48.064 91.7389 48.064ZM99.0336 48.038H102.206V49H97.8506V39.939H99.0336V48.038ZM104.619 39.939V45.672C104.619 46.478 104.814 47.076 105.204 47.466C105.603 47.856 106.153 48.051 106.855 48.051C107.548 48.051 108.09 47.856 108.48 47.466C108.879 47.076 109.078 46.478 109.078 45.672V39.939H110.261V45.659C110.261 46.413 110.109 47.05 109.806 47.57C109.503 48.0813 109.091 48.4627 108.571 48.714C108.06 48.9653 107.483 49.091 106.842 49.091C106.201 49.091 105.62 48.9653 105.1 48.714C104.589 48.4627 104.181 48.0813 103.878 47.57C103.583 47.05 103.436 46.413 103.436 45.659V39.939H104.619ZM117.811 39.939V40.901H115.341V49H114.158V40.901H111.675V39.939H117.811ZM120.451 39.939V49H119.268V39.939H120.451ZM126.575 49.091C125.734 49.091 124.967 48.896 124.274 48.506C123.58 48.1073 123.03 47.557 122.623 46.855C122.224 46.1443 122.025 45.347 122.025 44.463C122.025 43.579 122.224 42.786 122.623 42.084C123.03 41.3733 123.58 40.823 124.274 40.433C124.967 40.0343 125.734 39.835 126.575 39.835C127.424 39.835 128.195 40.0343 128.889 40.433C129.582 40.823 130.128 41.369 130.527 42.071C130.925 42.773 131.125 43.5703 131.125 44.463C131.125 45.3557 130.925 46.153 130.527 46.855C130.128 47.557 129.582 48.1073 128.889 48.506C128.195 48.896 127.424 49.091 126.575 49.091ZM126.575 48.064C127.207 48.064 127.775 47.9167 128.278 47.622C128.789 47.3273 129.188 46.907 129.474 46.361C129.768 45.815 129.916 45.1823 129.916 44.463C129.916 43.735 129.768 43.1023 129.474 42.565C129.188 42.019 128.793 41.5987 128.291 41.304C127.788 41.0093 127.216 40.862 126.575 40.862C125.933 40.862 125.361 41.0093 124.859 41.304C124.356 41.5987 123.957 42.019 123.663 42.565C123.377 43.1023 123.234 43.735 123.234 44.463C123.234 45.1823 123.377 45.815 123.663 46.361C123.957 46.907 124.356 47.3273 124.859 47.622C125.37 47.9167 125.942 48.064 126.575 48.064ZM139.811 49H138.628L133.87 41.785V49H132.687V39.926H133.87L138.628 47.128V39.926H139.811V49ZM144.7 49.091C144.102 49.091 143.565 48.987 143.088 48.779C142.62 48.5623 142.252 48.2677 141.983 47.895C141.715 47.5137 141.576 47.076 141.567 46.582H142.828C142.872 47.0067 143.045 47.3663 143.348 47.661C143.66 47.947 144.111 48.09 144.7 48.09C145.264 48.09 145.706 47.9513 146.026 47.674C146.356 47.388 146.52 47.024 146.52 46.582C146.52 46.2353 146.425 45.9537 146.234 45.737C146.044 45.5203 145.805 45.3557 145.519 45.243C145.233 45.1303 144.848 45.009 144.362 44.879C143.764 44.723 143.283 44.567 142.919 44.411C142.564 44.255 142.256 44.0123 141.996 43.683C141.745 43.345 141.619 42.8943 141.619 42.331C141.619 41.837 141.745 41.3993 141.996 41.018C142.248 40.6367 142.599 40.342 143.049 40.134C143.509 39.926 144.033 39.822 144.622 39.822C145.472 39.822 146.165 40.0343 146.702 40.459C147.248 40.8837 147.556 41.447 147.625 42.149H146.325C146.282 41.8023 146.1 41.499 145.779 41.239C145.459 40.9703 145.034 40.836 144.505 40.836C144.011 40.836 143.608 40.966 143.296 41.226C142.984 41.4773 142.828 41.8327 142.828 42.292C142.828 42.6213 142.919 42.89 143.101 43.098C143.292 43.306 143.522 43.4663 143.79 43.579C144.068 43.683 144.453 43.8043 144.947 43.943C145.545 44.1077 146.026 44.2723 146.39 44.437C146.754 44.593 147.066 44.84 147.326 45.178C147.586 45.5073 147.716 45.958 147.716 46.53C147.716 46.972 147.599 47.388 147.365 47.778C147.131 48.168 146.785 48.4843 146.325 48.727C145.866 48.9697 145.324 49.091 144.7 49.091Z" fill="#858181"/>
<path d="M82.874 49.091C82.276 49.091 81.7387 48.987 81.262 48.779C80.794 48.5623 80.4257 48.2677 80.157 47.895C79.8883 47.5137 79.7497 47.076 79.741 46.582H81.002C81.0453 47.0067 81.2187 47.3663 81.522 47.661C81.834 47.947 82.2847 48.09 82.874 48.09C83.4373 48.09 83.8793 47.9513 84.2 47.674C84.5293 47.388 84.694 47.024 84.694 46.582C84.694 46.2353 84.5987 45.9537 84.408 45.737C84.2173 45.5203 83.979 45.3557 83.693 45.243C83.407 45.1303 83.0213 45.009 82.536 44.879C81.938 44.723 81.457 44.567 81.093 44.411C80.7377 44.255 80.43 44.0123 80.17 43.683C79.9187 43.345 79.793 42.8943 79.793 42.331C79.793 41.837 79.9187 41.3993 80.17 41.018C80.4213 40.6367 80.7723 40.342 81.223 40.134C81.6823 39.926 82.2067 39.822 82.796 39.822C83.6453 39.822 84.3387 40.0343 84.876 40.459C85.422 40.8837 85.7297 41.447 85.799 42.149H84.499C84.4557 41.8023 84.2737 41.499 83.953 41.239C83.6323 40.9703 83.2077 40.836 82.679 40.836C82.185 40.836 81.782 40.966 81.47 41.226C81.158 41.4773 81.002 41.8327 81.002 42.292C81.002 42.6213 81.093 42.89 81.275 43.098C81.4657 43.306 81.6953 43.4663 81.964 43.579C82.2413 43.683 82.627 43.8043 83.121 43.943C83.719 44.1077 84.2 44.2723 84.564 44.437C84.928 44.593 85.24 44.84 85.5 45.178C85.76 45.5073 85.89 45.958 85.89 46.53C85.89 46.972 85.773 47.388 85.539 47.778C85.305 48.168 84.9583 48.4843 84.499 48.727C84.0397 48.9697 83.498 49.091 82.874 49.091ZM91.7389 49.091C90.8982 49.091 90.1312 48.896 89.4379 48.506C88.7445 48.1073 88.1942 47.557 87.7869 46.855C87.3882 46.1443 87.1889 45.347 87.1889 44.463C87.1889 43.579 87.3882 42.786 87.7869 42.084C88.1942 41.3733 88.7445 40.823 89.4379 40.433C90.1312 40.0343 90.8982 39.835 91.7389 39.835C92.5882 39.835 93.3595 40.0343 94.0529 40.433C94.7462 40.823 95.2922 41.369 95.6909 42.071C96.0895 42.773 96.2889 43.5703 96.2889 44.463C96.2889 45.3557 96.0895 46.153 95.6909 46.855C95.2922 47.557 94.7462 48.1073 94.0529 48.506C93.3595 48.896 92.5882 49.091 91.7389 49.091ZM91.7389 48.064C92.3715 48.064 92.9392 47.9167 93.4419 47.622C93.9532 47.3273 94.3519 46.907 94.6379 46.361C94.9326 45.815 95.0799 45.1823 95.0799 44.463C95.0799 43.735 94.9326 43.1023 94.6379 42.565C94.3519 42.019 93.9575 41.5987 93.4549 41.304C92.9522 41.0093 92.3802 40.862 91.7389 40.862C91.0975 40.862 90.5255 41.0093 90.0229 41.304C89.5202 41.5987 89.1215 42.019 88.8269 42.565C88.5409 43.1023 88.3979 43.735 88.3979 44.463C88.3979 45.1823 88.5409 45.815 88.8269 46.361C89.1215 46.907 89.5202 47.3273 90.0229 47.622C90.5342 47.9167 91.1062 48.064 91.7389 48.064ZM99.0336 48.038H102.206V49H97.8506V39.939H99.0336V48.038ZM104.619 39.939V45.672C104.619 46.478 104.814 47.076 105.204 47.466C105.603 47.856 106.153 48.051 106.855 48.051C107.548 48.051 108.09 47.856 108.48 47.466C108.879 47.076 109.078 46.478 109.078 45.672V39.939H110.261V45.659C110.261 46.413 110.109 47.05 109.806 47.57C109.503 48.0813 109.091 48.4627 108.571 48.714C108.06 48.9653 107.483 49.091 106.842 49.091C106.201 49.091 105.62 48.9653 105.1 48.714C104.589 48.4627 104.181 48.0813 103.878 47.57C103.583 47.05 103.436 46.413 103.436 45.659V39.939H104.619ZM117.811 39.939V40.901H115.341V49H114.158V40.901H111.675V39.939H117.811ZM120.451 39.939V49H119.268V39.939H120.451ZM126.575 49.091C125.734 49.091 124.967 48.896 124.274 48.506C123.58 48.1073 123.03 47.557 122.623 46.855C122.224 46.1443 122.025 45.347 122.025 44.463C122.025 43.579 122.224 42.786 122.623 42.084C123.03 41.3733 123.58 40.823 124.274 40.433C124.967 40.0343 125.734 39.835 126.575 39.835C127.424 39.835 128.195 40.0343 128.889 40.433C129.582 40.823 130.128 41.369 130.527 42.071C130.925 42.773 131.125 43.5703 131.125 44.463C131.125 45.3557 130.925 46.153 130.527 46.855C130.128 47.557 129.582 48.1073 128.889 48.506C128.195 48.896 127.424 49.091 126.575 49.091ZM126.575 48.064C127.207 48.064 127.775 47.9167 128.278 47.622C128.789 47.3273 129.188 46.907 129.474 46.361C129.768 45.815 129.916 45.1823 129.916 44.463C129.916 43.735 129.768 43.1023 129.474 42.565C129.188 42.019 128.793 41.5987 128.291 41.304C127.788 41.0093 127.216 40.862 126.575 40.862C125.933 40.862 125.361 41.0093 124.859 41.304C124.356 41.5987 123.957 42.019 123.663 42.565C123.377 43.1023 123.234 43.735 123.234 44.463C123.234 45.1823 123.377 45.815 123.663 46.361C123.957 46.907 124.356 47.3273 124.859 47.622C125.37 47.9167 125.942 48.064 126.575 48.064ZM139.811 49H138.628L133.87 41.785V49H132.687V39.926H133.87L138.628 47.128V39.926H139.811V49ZM144.7 49.091C144.102 49.091 143.565 48.987 143.088 48.779C142.62 48.5623 142.252 48.2677 141.983 47.895C141.715 47.5137 141.576 47.076 141.567 46.582H142.828C142.872 47.0067 143.045 47.3663 143.348 47.661C143.66 47.947 144.111 48.09 144.7 48.09C145.264 48.09 145.706 47.9513 146.026 47.674C146.356 47.388 146.52 47.024 146.52 46.582C146.52 46.2353 146.425 45.9537 146.234 45.737C146.044 45.5203 145.805 45.3557 145.519 45.243C145.233 45.1303 144.848 45.009 144.362 44.879C143.764 44.723 143.283 44.567 142.919 44.411C142.564 44.255 142.256 44.0123 141.996 43.683C141.745 43.345 141.619 42.8943 141.619 42.331C141.619 41.837 141.745 41.3993 141.996 41.018C142.248 40.6367 142.599 40.342 143.049 40.134C143.509 39.926 144.033 39.822 144.622 39.822C145.472 39.822 146.165 40.0343 146.702 40.459C147.248 40.8837 147.556 41.447 147.625 42.149H146.325C146.282 41.8023 146.1 41.499 145.779 41.239C145.459 40.9703 145.034 40.836 144.505 40.836C144.011 40.836 143.608 40.966 143.296 41.226C142.984 41.4773 142.828 41.8327 142.828 42.292C142.828 42.6213 142.919 42.89 143.101 43.098C143.292 43.306 143.522 43.4663 143.79 43.579C144.068 43.683 144.453 43.8043 144.947 43.943C145.545 44.1077 146.026 44.2723 146.39 44.437C146.754 44.593 147.066 44.84 147.326 45.178C147.586 45.5073 147.716 45.958 147.716 46.53C147.716 46.972 147.599 47.388 147.365 47.778C147.131 48.168 146.785 48.4843 146.325 48.727C145.866 48.9697 145.324 49.091 144.7 49.091Z" fill="url(#paint3_linear)" fill-opacity="0.4"/>
<defs>
<linearGradient id="paint0_linear" x1="30" y1="0" x2="30" y2="60" gradientUnits="userSpaceOnUse">
<stop stop-color="white"/>
<stop offset="1" stop-color="white" stop-opacity="0"/>
</linearGradient>
<linearGradient id="paint1_linear" x1="97.5" y1="11.9592" x2="97.5" y2="32.1021" gradientUnits="userSpaceOnUse">
<stop stop-color="#FAFAF5"/>
<stop offset="1" stop-color="white" stop-opacity="0"/>
</linearGradient>
<linearGradient id="paint2_linear" x1="149.5" y1="11" x2="149.5" y2="37" gradientUnits="userSpaceOnUse">
<stop stop-color="#FAFAF5"/>
<stop offset="1" stop-color="white" stop-opacity="0"/>
</linearGradient>
<linearGradient id="paint3_linear" x1="116" y1="34" x2="116" y2="59" gradientUnits="userSpaceOnUse">
<stop stop-color="white"/>
<stop offset="1" stop-color="white" stop-opacity="0"/>
</linearGradient>
</defs>
</svg>
