<svg width="35" height="39" viewBox="0 0 35 39" fill="none" xmlns="http://www.w3.org/2000/svg">
<path d="M17.4995 0.0249023L0.689453 3.7149V13.5959C0.689453 21.7549 4.58445 29.4629 11.1445 34.3009L17.4995 38.9749L23.8545 34.3009C30.4145 29.5039 34.3095 21.7549 34.3095 13.5959V3.7149L17.4995 0.0249023ZM31.4805 13.5959C31.4805 20.8119 27.9955 27.6999 22.1735 32.0049L17.4995 35.4489L12.8255 32.0049C7.00345 27.7409 3.51845 20.8529 3.51845 13.5959V6.0109L17.4995 2.9359L31.4805 6.0109V13.5959Z" fill="#FF876E" fill-opacity="0.82"/>
<path d="M13.1126 13.063V15.236H12.0056C11.5956 15.236 11.2266 15.564 11.2266 16.015V23.477C11.2266 23.887 11.5546 24.256 12.0056 24.256H22.9936C23.4036 24.256 23.7726 23.928 23.7726 23.477V16.015C23.7726 15.605 23.4446 15.236 22.9936 15.236H21.8866V13.063C21.8866 10.644 19.9186 8.67603 17.4996 8.67603C15.0806 8.67603 13.1126 10.644 13.1126 13.063ZM18.4426 21.468C18.5246 21.714 18.3196 21.96 18.0736 21.96H16.9256C16.6796 21.96 16.4746 21.714 16.5566 21.468L16.9256 20.074C16.4746 19.869 16.1876 19.418 16.1876 18.885C16.1876 18.147 16.8026 17.573 17.4996 17.573C18.2376 17.573 18.8116 18.188 18.8116 18.885C18.8116 19.418 18.5246 19.828 18.0736 20.074L18.4426 21.468ZM19.7136 13.063V15.236H15.2856V13.063C15.2856 11.833 16.2696 10.849 17.4996 10.849C18.7296 10.849 19.7136 11.874 19.7136 13.063Z" fill="#FF876E" fill-opacity="0.82"/>
</svg>
