<svg width="41" height="41" viewBox="0 0 41 41" fill="none" xmlns="http://www.w3.org/2000/svg">
<g filter="url(#filter0_i_1618:99)">
<path d="M20.5004 1.0249L3.69043 4.7149V14.5959C3.69043 22.7549 7.58543 30.4629 14.1454 35.3009L20.5004 39.9749L26.8554 35.3009C33.4154 30.5039 37.3104 22.7549 37.3104 14.5959V4.7149L20.5004 1.0249ZM34.4814 14.5959C34.4814 21.8119 30.9964 28.6999 25.1744 33.0049L20.5004 36.4489L15.8264 33.0049C10.0044 28.7409 6.51943 21.8529 6.51943 14.5959V7.0109L20.5004 3.9359L34.4814 7.0109V14.5959Z" fill="#FF876E" fill-opacity="0.82"/>
<path d="M16.1135 14.0628V16.2358H15.0065C14.5965 16.2358 14.2275 16.5638 14.2275 17.0148V24.4768C14.2275 24.8868 14.5555 25.2558 15.0065 25.2558H25.9945C26.4045 25.2558 26.7735 24.9278 26.7735 24.4768V17.0148C26.7735 16.6048 26.4455 16.2358 25.9945 16.2358H24.8875V14.0628C24.8875 11.6438 22.9195 9.67578 20.5005 9.67578C18.0815 9.67578 16.1135 11.6438 16.1135 14.0628ZM21.4435 22.4678C21.5255 22.7138 21.3205 22.9598 21.0745 22.9598H19.9265C19.6805 22.9598 19.4755 22.7138 19.5575 22.4678L19.9265 21.0738C19.4755 20.8688 19.1885 20.4178 19.1885 19.8848C19.1885 19.1468 19.8035 18.5728 20.5005 18.5728C21.2385 18.5728 21.8125 19.1878 21.8125 19.8848C21.8125 20.4178 21.5255 20.8278 21.0745 21.0738L21.4435 22.4678ZM22.7145 14.0628V16.2358H18.2865V14.0628C18.2865 12.8328 19.2705 11.8488 20.5005 11.8488C21.7305 11.8488 22.7145 12.8738 22.7145 14.0628Z" fill="#FF876E" fill-opacity="0.82"/>
</g>
<defs>
<filter id="filter0_i_1618:99" x="0" y="0" width="41" height="45" filterUnits="userSpaceOnUse" color-interpolation-filters="sRGB">
<feFlood flood-opacity="0" result="BackgroundImageFix"/>
<feBlend mode="normal" in="SourceGraphic" in2="BackgroundImageFix" result="shape"/>
<feColorMatrix in="SourceAlpha" type="matrix" values="0 0 0 0 0 0 0 0 0 0 0 0 0 0 0 0 0 0 127 0" result="hardAlpha"/>
<feOffset dy="4"/>
<feGaussianBlur stdDeviation="2"/>
<feComposite in2="hardAlpha" operator="arithmetic" k2="-1" k3="1"/>
<feColorMatrix type="matrix" values="0 0 0 0 0.7625 0 0 0 0 0.371719 0 0 0 0 0.371719 0 0 0 0.25 0"/>
<feBlend mode="normal" in2="shape" result="effect1_innerShadow_1618:99"/>
</filter>
</defs>
</svg>
