<svg width="25" height="24" viewBox="0 0 25 24" fill="none" xmlns="http://www.w3.org/2000/svg">
<g clip-path="url(#clip0_1724_117)">
<path d="M3.79656 9.95251C3.00384 10.1309 2.88959 10.6727 3.54098 11.1562L5.47101 12.5889C6.12268 13.0739 7.2685 13.2115 8.01587 12.8948L19.3721 8.01345C20.1183 7.69382 20.1652 7.78301 19.4764 8.21267L9.93938 14.1596C9.24928 14.587 9.21987 15.3311 9.87571 15.8101L10.1022 15.9764C10.758 16.4553 11.8231 17.25 12.4708 17.7403L14.6039 19.3568C15.2522 19.8473 16.1229 19.7071 16.5323 19.0056L23.7757 6.56981C24.1846 5.86813 23.8706 5.43956 23.0781 5.61736L3.79656 9.95251Z" fill="white"/>
<path d="M7.36808 20.3217C7.29115 20.4382 9.43403 18.5176 9.43403 18.5176C10.0393 17.9767 10.0051 17.1286 9.359 16.6374L7.88399 15.5153C7.23786 15.0241 6.7967 15.2794 6.90278 16.0849C6.90278 16.0849 7.44718 20.2019 7.36808 20.3217Z" fill="white"/>
</g>
<defs>
<clipPath id="clip0_1724_117">
<rect width="19" height="19" fill="white" transform="translate(5.78223 0.527588) rotate(15)"/>
</clipPath>
</defs>
</svg>
