<svg width="27" height="39" viewBox="0 0 27 39" fill="none" xmlns="http://www.w3.org/2000/svg">
<path d="M11.7379 21.6729V20.1969C11.7379 18.1879 13.3779 16.5889 15.3459 16.5889C16.3299 16.5889 17.2319 16.9579 17.9289 17.6549C18.2569 17.9829 18.5439 18.3929 18.7079 18.8439C20.8399 16.8759 22.1929 14.0059 22.1929 10.8489C22.1929 4.8629 17.3549 0.0249023 11.3689 0.0249023C5.38292 0.0249023 0.544922 4.8629 0.544922 10.8489C0.544922 16.8349 5.38292 21.6729 11.3689 21.6729C11.4919 21.6729 11.6149 21.6729 11.7379 21.6729ZM10.2619 14.7439C9.93392 14.7439 9.56492 14.6209 9.31892 14.3749L6.44892 11.5049C5.91592 10.9719 5.91592 10.1519 6.44892 9.6189C6.98192 9.0859 7.80192 9.0859 8.33492 9.6189L10.2209 11.5049L14.3619 7.3639C14.8949 6.8309 15.7149 6.8309 16.2479 7.3639C16.7809 7.8969 16.7809 8.7169 16.2479 9.2499L11.1639 14.3749C10.9179 14.6209 10.5899 14.7439 10.2619 14.7439Z" fill="#FF876E" fill-opacity="0.82"/>
<path d="M26.4577 28.6839C26.4577 27.7409 25.6787 27.0029 24.7767 27.0029C24.1617 27.0029 23.6287 27.3309 23.3417 27.7819V27.7409C23.3417 26.7979 22.5627 26.0599 21.6607 26.0599C21.0457 26.0599 20.5127 26.3879 20.2257 26.8389V26.7979C20.2257 25.8549 19.4467 25.1169 18.5447 25.1169C17.9297 25.1169 17.3967 25.4449 17.1097 25.8959V20.1969C17.1097 19.7459 16.9457 19.2949 16.6177 19.0079C16.2897 18.6799 15.8797 18.5159 15.4287 18.5159C14.4857 18.5159 13.7477 19.2949 13.7477 20.1969V30.6929C13.7477 30.7749 13.7067 30.8569 13.5837 30.8979C13.5017 30.9389 13.3787 30.8979 13.3377 30.8569L11.6157 29.1349C11.0417 28.5609 10.0987 28.4789 9.4427 28.9299C9.0327 29.2169 8.7867 29.6269 8.7047 30.1189C8.6227 30.6109 8.7867 31.1029 9.0737 31.4719L13.3787 36.6379C14.6087 38.1139 16.3717 38.9339 18.2987 38.9339H20.8817C22.3577 38.9339 23.7927 38.3599 24.8587 37.2939C25.9247 36.2279 26.4987 34.8339 26.4987 33.3169L26.4577 28.6839Z" fill="#FF876E" fill-opacity="0.82"/>
</svg>
