<svg width="41" height="41" viewBox="0 0 41 41" fill="none" xmlns="http://www.w3.org/2000/svg">
<g clip-path="url(#clip0_1618:108)">
<path d="M18.7369 22.6729V21.1969C18.7369 19.1879 20.3769 17.5889 22.3449 17.5889C23.3289 17.5889 24.2309 17.9579 24.9279 18.6549C25.2559 18.9829 25.5429 19.3929 25.7069 19.8439C27.8389 17.8759 29.1919 15.0059 29.1919 11.8489C29.1919 5.8629 24.3539 1.0249 18.3679 1.0249C12.3819 1.0249 7.54395 5.8629 7.54395 11.8489C7.54395 17.8349 12.3819 22.6729 18.3679 22.6729C18.4909 22.6729 18.6139 22.6729 18.7369 22.6729ZM17.2609 15.7439C16.9329 15.7439 16.5639 15.6209 16.3179 15.3749L13.4479 12.5049C12.9149 11.9719 12.9149 11.1519 13.4479 10.6189C13.9809 10.0859 14.8009 10.0859 15.3339 10.6189L17.2199 12.5049L21.3609 8.3639C21.8939 7.8309 22.7139 7.8309 23.2469 8.3639C23.7799 8.8969 23.7799 9.7169 23.2469 10.2499L18.1629 15.3749C17.9169 15.6209 17.5889 15.7439 17.2609 15.7439Z" fill="#FF876E" fill-opacity="0.82"/>
<path d="M33.4558 29.6841C33.4558 28.7411 32.6768 28.0031 31.7748 28.0031C31.1598 28.0031 30.6268 28.3311 30.3398 28.7821V28.7411C30.3398 27.7981 29.5608 27.0601 28.6588 27.0601C28.0438 27.0601 27.5108 27.3881 27.2238 27.8391V27.7981C27.2238 26.8551 26.4448 26.1171 25.5428 26.1171C24.9278 26.1171 24.3947 26.4451 24.1077 26.8961V21.1971C24.1077 20.7461 23.9437 20.2951 23.6157 20.0081C23.2877 19.6801 22.8778 19.5161 22.4268 19.5161C21.4837 19.5161 20.7457 20.2951 20.7457 21.1971V31.6931C20.7457 31.7751 20.7048 31.8571 20.5817 31.8981C20.4998 31.9391 20.3767 31.8981 20.3357 31.8571L18.6138 30.1351C18.0398 29.5611 17.0967 29.4791 16.4407 29.9301C16.0307 30.2171 15.7847 30.6271 15.7027 31.1191C15.6207 31.6111 15.7847 32.1031 16.0717 32.4721L20.3767 37.6381C21.6068 39.1141 23.3698 39.9341 25.2968 39.9341H27.8798C29.3558 39.9341 30.7908 39.3601 31.8568 38.2941C32.9228 37.2281 33.4967 35.8341 33.4967 34.3171L33.4558 29.6841Z" fill="#FF876E" fill-opacity="0.82"/>
</g>
<defs>
<clipPath id="clip0_1618:108">
<rect width="41" height="41" fill="white"/>
</clipPath>
</defs>
</svg>
